<svg width="62" height="86" viewBox="0 0 62 86" fill="none" xmlns="http://www.w3.org/2000/svg">
<rect width="62" height="86" rx="4" fill="#FAFAFB"/>
<path d="M7.14 19.32C7.91333 18.5733 8.6 17.9133 9.2 17.34C9.8 16.7533 10.32 16.2267 10.76 15.76C11.2133 15.28 11.5867 14.8333 11.88 14.42C12.1867 14.0067 12.4133 13.6067 12.56 13.22C12.7067 12.82 12.78 12.4 12.78 11.96C12.78 11.6667 12.74 11.4133 12.66 11.2C12.5933 10.9867 12.48 10.8133 12.32 10.68C12.1733 10.5333 11.9867 10.4267 11.76 10.36C11.5467 10.28 11.3 10.24 11.02 10.24C10.74 10.24 10.4733 10.2733 10.22 10.34C9.98 10.4067 9.74667 10.5067 9.52 10.64C9.30667 10.7733 9.10667 10.9533 8.92 11.18C8.8 11.3533 8.72 11.4933 8.68 11.6C8.65333 11.6933 8.64667 11.7933 8.66 11.9L8.54 12.04L8.4 11.94L6.84 10.74C7.14667 10.22 7.51333 9.78667 7.94 9.44C8.38 9.09333 8.86 8.82667 9.38 8.64C9.91333 8.45333 10.4667 8.36 11.04 8.36C11.76 8.36 12.4133 8.50667 13 8.8C13.5867 9.09333 14.0533 9.51333 14.4 10.06C14.7467 10.5933 14.92 11.2267 14.92 11.96C14.92 12.48 14.84 12.9733 14.68 13.44C14.5333 13.8933 14.32 14.34 14.04 14.78C13.7733 15.2067 13.44 15.6467 13.04 16.1C12.64 16.5533 12.1933 17.0333 11.7 17.54C11.2067 18.0333 10.6733 18.5733 10.1 19.16H14.04C14.2667 19.16 14.4267 19.1467 14.52 19.12C14.6133 19.0933 14.7 19.04 14.78 18.96H14.96V19.16V21H7.14V19.32Z" fill="#191927"/>
<ellipse cx="30.9652" cy="34.181" rx="8.89386" ry="8.77528" fill="#191927"/>
<circle cx="38.2342" cy="45.0553" r="8.81042" fill="#191927"/>
<circle cx="23.7665" cy="45.0553" r="8.81042" fill="#191927"/>
<rect x="29.416" y="46.1733" width="3.02628" height="13.9739" fill="#191927"/>
<path d="M37.7969 57.4231L37.7969 60.5946L25.1109 60.5946L25.1109 57.4231L37.7969 57.4231Z" fill="#191927"/>
<path d="M54.86 66.68C54.0867 67.4267 53.4 68.0867 52.8 68.66C52.2 69.2467 51.68 69.7733 51.24 70.24C50.7867 70.72 50.4133 71.1667 50.12 71.58C49.8133 71.9933 49.5867 72.3933 49.44 72.78C49.2933 73.18 49.22 73.6 49.22 74.04C49.22 74.3333 49.26 74.5867 49.34 74.8C49.4067 75.0133 49.52 75.1867 49.68 75.32C49.8267 75.4667 50.0133 75.5733 50.24 75.64C50.4533 75.72 50.7 75.76 50.98 75.76C51.26 75.76 51.5267 75.7267 51.78 75.66C52.02 75.5933 52.2533 75.4933 52.48 75.36C52.6933 75.2267 52.8933 75.0467 53.08 74.82C53.2 74.6467 53.28 74.5067 53.32 74.4C53.3467 74.3067 53.3533 74.2067 53.34 74.1L53.46 73.96L53.6 74.06L55.16 75.26C54.8533 75.78 54.4867 76.2133 54.06 76.56C53.62 76.9067 53.14 77.1733 52.62 77.36C52.0867 77.5467 51.5333 77.64 50.96 77.64C50.24 77.64 49.5867 77.4933 49 77.2C48.4133 76.9067 47.9467 76.4867 47.6 75.94C47.2533 75.4067 47.08 74.7733 47.08 74.04C47.08 73.52 47.16 73.0267 47.32 72.56C47.4667 72.1067 47.68 71.66 47.96 71.22C48.2267 70.7933 48.56 70.3533 48.96 69.9C49.36 69.4467 49.8067 68.9667 50.3 68.46C50.7933 67.9667 51.3267 67.4267 51.9 66.84H47.96C47.7333 66.84 47.5733 66.8533 47.48 66.88C47.3867 66.9067 47.3 66.96 47.22 67.04H47.04V66.84V65H54.86V66.68Z" fill="#191927"/>
</svg>
