<svg width="62" height="86" viewBox="0 0 62 86" fill="none" xmlns="http://www.w3.org/2000/svg">
<rect width="62" height="86" rx="4" fill="#FAFAFB"/>
<path d="M11.68 21V18.04H6.8V16.56L12.2 8.54H13.88V16.22H15.52V18.06H13.88V21H11.68ZM9.08 16.26H11.74V12.1L9.08 16.26Z" fill="#191927"/>
<path fill-rule="evenodd" clip-rule="evenodd" d="M44.5891 50.0169C41.2289 53.469 35.6787 53.5701 32.1924 50.2428L30.9999 49.1046L29.8073 50.2428C26.321 53.5701 20.7709 53.469 17.4106 50.0169C14.0504 46.5648 14.1525 41.069 17.6388 37.7416L30.9999 24.9897L44.3609 37.7416C47.8472 41.069 47.9493 46.5648 44.5891 50.0169Z" fill="#191927"/>
<rect x="29.4131" y="48.3242" width="3.17151" height="12.686" fill="#191927"/>
<path d="M37.3418 57.8386L37.3418 61.0101L24.6558 61.0101L24.6558 57.8386L37.3418 57.8386Z" fill="#191927"/>
<path d="M50.32 65V67.96H55.2V69.44L49.8 77.46H48.12V69.78H46.48V67.94H48.12V65H50.32ZM52.92 69.74H50.26V73.9L52.92 69.74Z" fill="#191927"/>
</svg>
