<svg width="62" height="86" viewBox="0 0 62 86" fill="none" xmlns="http://www.w3.org/2000/svg">
<rect width="62" height="86" rx="4" fill="#FAFAFB"/>
<path d="M13.34 18.1H8.46L8.78 16.48H12.96L13.34 18.1ZM11 12.64L8.48 21H6.24L10.46 8.46H11.54L15.76 21H13.48L11 12.64Z" fill="#191927"/>
<ellipse cx="30.9652" cy="34.181" rx="8.89386" ry="8.77528" fill="#191927"/>
<circle cx="38.2342" cy="45.0553" r="8.81042" fill="#191927"/>
<circle cx="23.7665" cy="45.0553" r="8.81042" fill="#191927"/>
<rect x="29.416" y="46.1733" width="3.02628" height="13.9739" fill="#191927"/>
<path d="M37.7969 57.4231L37.7969 60.5946L25.1109 60.5946L25.1109 57.4231L37.7969 57.4231Z" fill="#191927"/>
<path d="M48.66 67.9H53.54L53.22 69.52H49.04L48.66 67.9ZM51 73.36L53.52 65H55.76L51.54 77.54H50.46L46.24 65H48.52L51 73.36Z" fill="#191927"/>
</svg>
