<svg width="62" height="86" viewBox="0 0 62 86" fill="none" xmlns="http://www.w3.org/2000/svg">
<rect width="62" height="86" rx="4" fill="#FAFAFB"/>
<path d="M13.34 18.1H8.46L8.78 16.48H12.96L13.34 18.1ZM11 12.64L8.48 21H6.24L10.46 8.46H11.54L15.76 21H13.48L11 12.64Z" fill="#191927"/>
<path fill-rule="evenodd" clip-rule="evenodd" d="M44.5891 50.0169C41.2289 53.469 35.6787 53.5701 32.1924 50.2428L30.9999 49.1046L29.8073 50.2428C26.321 53.5701 20.7709 53.469 17.4106 50.0169C14.0504 46.5648 14.1525 41.069 17.6388 37.7416L30.9999 24.9897L44.3609 37.7416C47.8472 41.069 47.9493 46.5648 44.5891 50.0169Z" fill="#191927"/>
<rect x="29.4131" y="48.3242" width="3.17151" height="12.686" fill="#191927"/>
<path d="M37.3418 57.8386L37.3418 61.0101L24.6558 61.0101L24.6558 57.8386L37.3418 57.8386Z" fill="#191927"/>
<path d="M48.66 67.9H53.54L53.22 69.52H49.04L48.66 67.9ZM51 73.36L53.52 65H55.76L51.54 77.54H50.46L46.24 65H48.52L51 73.36Z" fill="#191927"/>
</svg>
