<svg width="62" height="86" viewBox="0 0 62 86" fill="none" xmlns="http://www.w3.org/2000/svg">
<rect width="62" height="86" rx="4" fill="#FAFAFB"/>
<path d="M9.88 21.3C9.24 21.3 8.63333 21.1867 8.06 20.96C7.48667 20.7333 7.00667 20.3867 6.62 19.92L7.74 18.14L7.84 17.98L8 18.08C8.02667 18.1867 8.06 18.2933 8.1 18.4C8.14 18.5067 8.24 18.64 8.4 18.8C8.58667 18.9333 8.78667 19.04 9 19.12C9.21333 19.1867 9.44 19.22 9.68 19.22C10.0267 19.22 10.3133 19.1267 10.54 18.94C10.78 18.74 10.96 18.4467 11.08 18.06C11.2 17.66 11.26 17.1667 11.26 16.58V10.36H8.96V8.54H15.34V10.36H13.5V16.74C13.5133 17.5267 13.42 18.2067 13.22 18.78C13.02 19.34 12.7467 19.8067 12.4 20.18C12.0533 20.5533 11.66 20.8333 11.22 21.02C10.78 21.2067 10.3333 21.3 9.88 21.3Z" fill="#191927"/>
<ellipse cx="30.9652" cy="34.181" rx="8.89386" ry="8.77528" fill="#191927"/>
<circle cx="38.2342" cy="45.0553" r="8.81042" fill="#191927"/>
<circle cx="23.7665" cy="45.0553" r="8.81042" fill="#191927"/>
<rect x="29.416" y="46.1733" width="3.02628" height="13.9739" fill="#191927"/>
<path d="M37.7969 57.4231L37.7969 60.5946L25.1109 60.5946L25.1109 57.4231L37.7969 57.4231Z" fill="#191927"/>
<path d="M52.12 64.7C52.76 64.7 53.3667 64.8133 53.94 65.04C54.5133 65.2667 54.9933 65.6133 55.38 66.08L54.26 67.86L54.16 68.02L54 67.92C53.9733 67.8133 53.94 67.7067 53.9 67.6C53.86 67.4933 53.76 67.36 53.6 67.2C53.4133 67.0667 53.2133 66.96 53 66.88C52.7867 66.8133 52.56 66.78 52.32 66.78C51.9733 66.78 51.6867 66.8733 51.46 67.06C51.22 67.26 51.04 67.5533 50.92 67.94C50.8 68.34 50.74 68.8333 50.74 69.42V75.64H53.04V77.46H46.66V75.64H48.5V69.26C48.4867 68.4733 48.58 67.7933 48.78 67.22C48.98 66.66 49.2533 66.1933 49.6 65.82C49.9467 65.4467 50.34 65.1667 50.78 64.98C51.22 64.7933 51.6667 64.7 52.12 64.7Z" fill="#191927"/>
</svg>
