<svg width="62" height="86" viewBox="0 0 62 86" fill="none" xmlns="http://www.w3.org/2000/svg">
<rect width="62" height="86" rx="4" fill="#FAFAFB"/>
<path d="M9.78 15.36L8.96 16.44V21H6.74V8.54H8.94H9.12V8.72C9.05333 8.8 9.00667 8.88667 8.98 8.98C8.96667 9.07333 8.96 9.23333 8.96 9.46V13.64L13.1 8.42C13.2067 8.44667 13.32 8.46667 13.44 8.48C13.5733 8.49333 13.7067 8.50667 13.84 8.52C13.9867 8.53333 14.12 8.54 14.24 8.54C14.3733 8.54 14.48 8.54 14.56 8.54H15.6L11.38 13.76L15.84 20.98L13.26 21.08L9.78 15.36Z" fill="#191927"/>
<path d="M31.0001 24.9504L47.0442 43L31.0001 61.0496L14.9561 43L31.0001 24.9504Z" fill="#D93B55"/>
<path d="M52.22 70.64L53.04 69.56V65H55.26V77.46H53.06H52.88V77.28C52.9467 77.2 52.9933 77.1133 53.02 77.02C53.0333 76.9267 53.04 76.7667 53.04 76.54V72.36L48.9 77.58C48.7933 77.5533 48.68 77.5333 48.56 77.52C48.4267 77.5067 48.2933 77.4933 48.16 77.48C48.0133 77.4667 47.88 77.46 47.76 77.46C47.6267 77.46 47.52 77.46 47.44 77.46H46.4L50.62 72.24L46.16 65.02L48.74 64.92L52.22 70.64Z" fill="#191927"/>
</svg>
