<svg width="62" height="86" viewBox="0 0 62 86" fill="none" xmlns="http://www.w3.org/2000/svg">
<rect width="62" height="86" rx="4" fill="#FAFAFB"/>
<path d="M13.56 23.92C12.9333 23.92 12.4 23.8733 11.96 23.78C11.52 23.7 11.1533 23.5533 10.86 23.34C10.58 23.1267 10.3733 22.84 10.24 22.48C10.1067 22.12 10.0333 21.66 10.02 21.1C9.3 20.94 8.66667 20.5933 8.12 20.06C7.58667 19.5267 7.16667 18.8133 6.86 17.92C6.55333 17.0267 6.4 15.98 6.4 14.78C6.4 13.62 6.52 12.6333 6.76 11.82C7.01333 10.9933 7.35333 10.3267 7.78 9.82C8.22 9.31333 8.71333 8.94 9.26 8.7C9.82 8.46 10.4133 8.34 11.04 8.34C11.6933 8.34 12.3 8.46667 12.86 8.72C13.4333 8.97333 13.9267 9.36 14.34 9.88C14.7667 10.4 15.0933 11.0667 15.32 11.88C15.5467 12.6933 15.6533 13.6533 15.64 14.76C15.64 15.7467 15.56 16.6067 15.4 17.34C15.24 18.0733 15.0067 18.7 14.7 19.22C14.3933 19.7267 14.02 20.1333 13.58 20.44C13.1533 20.7467 12.6733 20.9667 12.14 21.1C12.1667 21.3 12.2133 21.48 12.28 21.64C12.3467 21.8 12.46 21.92 12.62 22C12.78 22.08 12.9867 22.12 13.24 22.12L14.88 22.04L14.84 23.92H13.56ZM11.08 19.36C11.3867 19.36 11.68 19.28 11.96 19.12C12.2533 18.9467 12.5067 18.6867 12.72 18.34C12.9467 17.98 13.1267 17.52 13.26 16.96C13.3933 16.3867 13.46 15.7 13.46 14.9C13.46 14.02 13.3933 13.28 13.26 12.68C13.1267 12.0667 12.94 11.58 12.7 11.22C12.4733 10.8467 12.22 10.58 11.94 10.42C11.66 10.26 11.36 10.18 11.04 10.18C10.6533 10.18 10.3133 10.28 10.02 10.48C9.72667 10.68 9.47333 10.98 9.26 11.38C9.04667 11.7667 8.88667 12.2267 8.78 12.76C8.67333 13.2933 8.62 13.9 8.62 14.58C8.62 15.62 8.72 16.4933 8.92 17.2C9.12 17.9067 9.40667 18.4467 9.78 18.82C10.1533 19.18 10.5867 19.36 11.08 19.36Z" fill="#191927"/>
<path fill-rule="evenodd" clip-rule="evenodd" d="M17.6665 31.8692C20.9636 28.4338 26.4095 28.3332 29.8302 31.6443L31.0003 32.777L32.1705 31.6443C35.5912 28.3332 41.037 28.4338 44.3341 31.8692C47.6312 35.3045 47.531 40.7736 44.1103 44.0847L31.0003 56.7747L17.8904 44.0847C14.4697 40.7736 14.3694 35.3045 17.6665 31.8692Z" fill="#D93B55"/>
<path d="M48.44 62.08C49.0667 62.08 49.6 62.1267 50.04 62.22C50.48 62.3 50.8467 62.4467 51.14 62.66C51.42 62.8733 51.6267 63.16 51.76 63.52C51.8933 63.88 51.9667 64.34 51.98 64.9C52.7 65.06 53.3333 65.4067 53.88 65.94C54.4133 66.4733 54.8333 67.1867 55.14 68.08C55.4467 68.9733 55.6 70.02 55.6 71.22C55.6 72.38 55.48 73.3667 55.24 74.18C54.9867 75.0067 54.6467 75.6733 54.22 76.18C53.78 76.6867 53.2867 77.06 52.74 77.3C52.18 77.54 51.5867 77.66 50.96 77.66C50.3067 77.66 49.7 77.5333 49.14 77.28C48.5667 77.0267 48.0733 76.64 47.66 76.12C47.2333 75.6 46.9067 74.9333 46.68 74.12C46.4533 73.3067 46.3467 72.3467 46.36 71.24C46.36 70.2533 46.44 69.3933 46.6 68.66C46.76 67.9267 46.9933 67.3 47.3 66.78C47.6067 66.2733 47.98 65.8667 48.42 65.56C48.8467 65.2533 49.3267 65.0333 49.86 64.9C49.8333 64.7 49.7867 64.52 49.72 64.36C49.6533 64.2 49.54 64.08 49.38 64C49.22 63.92 49.0133 63.88 48.76 63.88L47.12 63.96L47.16 62.08H48.44ZM50.92 66.64C50.6133 66.64 50.32 66.72 50.04 66.88C49.7467 67.0533 49.4933 67.3133 49.28 67.66C49.0533 68.02 48.8733 68.48 48.74 69.04C48.6067 69.6133 48.54 70.3 48.54 71.1C48.54 71.98 48.6067 72.72 48.74 73.32C48.8733 73.9333 49.06 74.42 49.3 74.78C49.5267 75.1533 49.78 75.42 50.06 75.58C50.34 75.74 50.64 75.82 50.96 75.82C51.3467 75.82 51.6867 75.72 51.98 75.52C52.2733 75.32 52.5267 75.02 52.74 74.62C52.9533 74.2333 53.1133 73.7733 53.22 73.24C53.3267 72.7067 53.38 72.1 53.38 71.42C53.38 70.38 53.28 69.5067 53.08 68.8C52.88 68.0933 52.5933 67.5533 52.22 67.18C51.8467 66.82 51.4133 66.64 50.92 66.64Z" fill="#191927"/>
</svg>
