<svg width="63" height="86" viewBox="0 0 63 86" fill="none" xmlns="http://www.w3.org/2000/svg">
<rect width="62" height="86" rx="4" fill="#FAFAFB"/>
<path d="M10.16 21V11L7.9 11.8L7.42 10.3L10.74 8.54H12.42V21H10.16ZM16.12 17.28L21.46 10.98L21.86 12.48L16.52 18.74L16.12 17.28ZM19 21.24C18.12 21.24 17.36 20.9933 16.72 20.5C16.0933 20.0067 15.6067 19.2867 15.26 18.34C14.9133 17.38 14.74 16.2133 14.74 14.84C14.74 13.4933 14.9133 12.34 15.26 11.38C15.6067 10.4067 16.0933 9.66 16.72 9.14C17.36 8.62 18.12 8.36 19 8.36C19.88 8.36 20.6333 8.62 21.26 9.14C21.9 9.66 22.3933 10.4067 22.74 11.38C23.0867 12.34 23.26 13.4933 23.26 14.84C23.26 16.2133 23.0867 17.38 22.74 18.34C22.3933 19.2867 21.9 20.0067 21.26 20.5C20.6333 20.9933 19.88 21.24 19 21.24ZM19 19.5C19.48 19.5 19.88 19.32 20.2 18.96C20.52 18.6 20.76 18.0733 20.92 17.38C21.08 16.6867 21.16 15.84 21.16 14.84C21.16 13.8533 21.08 13.02 20.92 12.34C20.76 11.6467 20.52 11.1133 20.2 10.74C19.88 10.3667 19.48 10.18 19 10.18C18.52 10.18 18.12 10.3667 17.8 10.74C17.48 11.1133 17.24 11.6467 17.08 12.34C16.92 13.02 16.84 13.8533 16.84 14.84C16.84 15.84 16.92 16.6867 17.08 17.38C17.24 18.0733 17.48 18.6 17.8 18.96C18.12 19.32 18.52 19.5 19 19.5Z" fill="#191927"/>
<path fill-rule="evenodd" clip-rule="evenodd" d="M45.0891 50.0169C41.7289 53.469 36.1787 53.5701 32.6924 50.2428L31.4999 49.1046L30.3073 50.2428C26.821 53.5701 21.2709 53.469 17.9106 50.0169C14.5504 46.5648 14.6525 41.069 18.1388 37.7416L31.4999 24.9897L44.8609 37.7416C48.3472 41.069 48.4493 46.5648 45.0891 50.0169Z" fill="#191927"/>
<rect x="29.9131" y="48.3242" width="3.17151" height="12.686" fill="#191927"/>
<path d="M37.8418 57.8386L37.8418 61.0101L25.1558 61.0101L25.1558 57.8386L37.8418 57.8386Z" fill="#191927"/>
<path d="M51.84 65V75L54.1 74.2L54.58 75.7L51.26 77.46H49.58V65H51.84ZM45.88 68.72L40.54 75.02L40.14 73.52L45.48 67.26L45.88 68.72ZM43 64.76C43.88 64.76 44.64 65.0067 45.28 65.5C45.9067 65.9933 46.3933 66.7133 46.74 67.66C47.0867 68.62 47.26 69.7867 47.26 71.16C47.26 72.5067 47.0867 73.66 46.74 74.62C46.3933 75.5933 45.9067 76.34 45.28 76.86C44.64 77.38 43.88 77.64 43 77.64C42.12 77.64 41.3667 77.38 40.74 76.86C40.1 76.34 39.6067 75.5933 39.26 74.62C38.9133 73.66 38.74 72.5067 38.74 71.16C38.74 69.7867 38.9133 68.62 39.26 67.66C39.6067 66.7133 40.1 65.9933 40.74 65.5C41.3667 65.0067 42.12 64.76 43 64.76ZM43 66.5C42.52 66.5 42.12 66.68 41.8 67.04C41.48 67.4 41.24 67.9267 41.08 68.62C40.92 69.3133 40.84 70.16 40.84 71.16C40.84 72.1467 40.92 72.98 41.08 73.66C41.24 74.3533 41.48 74.8867 41.8 75.26C42.12 75.6333 42.52 75.82 43 75.82C43.48 75.82 43.88 75.6333 44.2 75.26C44.52 74.8867 44.76 74.3533 44.92 73.66C45.08 72.98 45.16 72.1467 45.16 71.16C45.16 70.16 45.08 69.3133 44.92 68.62C44.76 67.9267 44.52 67.4 44.2 67.04C43.88 66.68 43.48 66.5 43 66.5Z" fill="#191927"/>
</svg>
