<svg width="72" height="72" viewBox="0 0 72 72" fill="none" xmlns="http://www.w3.org/2000/svg">
<path d="M11 56.653V23.153C11 19.8393 13.6863 17.153 17 17.153H38.5C41.8137 17.153 44.5 19.8393 44.5 23.153V56.653C44.5 59.9667 41.8137 62.653 38.5 62.653H17C13.6863 62.653 11 59.9667 11 56.653Z" stroke="#FAFAFB" stroke-width="3"/>
<path d="M27.7307 17.153H38.5C41.8137 17.153 44.5 19.8393 44.5 23.153V56.653C44.5 57.2946 44.3993 57.9127 44.2128 58.4924L45.0629 58.7202C48.2637 59.5778 51.5537 57.6783 52.4114 54.4775L61.0818 22.119C61.9395 18.9182 60.04 15.6282 56.8392 14.7705L36.0718 9.20593C32.871 8.34828 29.581 10.2478 28.7233 13.4486L27.7307 17.153Z" stroke="#FAFAFB" stroke-width="3"/>
</svg>
