<svg width="72" height="72" viewBox="0 0 72 72" fill="none" xmlns="http://www.w3.org/2000/svg">
<path d="M45 63H27V36.6C27 36.2686 27.2686 36 27.6 36H44.4C44.7314 36 45 36.2686 45 36.6V63Z" stroke="#FAFAFB" stroke-width="3" stroke-linecap="round" stroke-linejoin="round"/>
<path d="M62.4 63H45V53.1C45 52.7686 45.2686 52.5 45.6 52.5H62.4C62.7314 52.5 63 52.7686 63 53.1V62.4C63 62.7314 62.7314 63 62.4 63Z" stroke="#FAFAFB" stroke-width="3" stroke-linecap="round" stroke-linejoin="round"/>
<path d="M27 63V47.1C27 46.7686 26.7314 46.5 26.4 46.5H9.6C9.26863 46.5 9 46.7686 9 47.1V62.4C9 62.7314 9.26863 63 9.6 63H27Z" stroke="#FAFAFB" stroke-width="3" stroke-linecap="round" stroke-linejoin="round"/>
<path d="M32.4167 15.3398L35.1441 9.55679C35.4943 8.8144 36.5057 8.8144 36.8559 9.55679L39.5833 15.3398L45.6825 16.2728C46.4651 16.3925 46.777 17.3993 46.2105 17.9769L41.7978 22.4751L42.8392 28.83C42.973 29.6461 42.1545 30.2684 41.4543 29.883L36 26.8809L30.5457 29.883C29.8455 30.2684 29.027 29.6461 29.1608 28.83L30.2022 22.4751L25.7895 17.9769C25.223 17.3993 25.5349 16.3925 26.3174 16.2728L32.4167 15.3398Z" stroke="#FAFAFB" stroke-width="3" stroke-linecap="round" stroke-linejoin="round"/>
</svg>
