<svg width="62" height="86" viewBox="0 0 62 86" fill="none" xmlns="http://www.w3.org/2000/svg">
<rect width="62" height="86" rx="4" fill="#FAFAFB"/>
<path d="M6.912 16.656C7.53067 16.0587 8.08 15.5307 8.56 15.072C9.04 14.6027 9.456 14.1813 9.808 13.808C10.1707 13.424 10.4693 13.0667 10.704 12.736C10.9493 12.4053 11.1307 12.0853 11.248 11.776C11.3653 11.456 11.424 11.12 11.424 10.768C11.424 10.5333 11.392 10.3307 11.328 10.16C11.2747 9.98933 11.184 9.85067 11.056 9.744C10.9387 9.62667 10.7893 9.54133 10.608 9.488C10.4373 9.424 10.24 9.392 10.016 9.392C9.792 9.392 9.57867 9.41867 9.376 9.472C9.184 9.52533 8.99733 9.60533 8.816 9.712C8.64533 9.81867 8.48533 9.96267 8.336 10.144C8.24 10.2827 8.176 10.3947 8.144 10.48C8.12267 10.5547 8.11733 10.6347 8.128 10.72L8.032 10.832L7.92 10.752L6.672 9.792C6.91733 9.376 7.21067 9.02933 7.552 8.752C7.904 8.47467 8.288 8.26133 8.704 8.112C9.13067 7.96267 9.57333 7.888 10.032 7.888C10.608 7.888 11.1307 8.00533 11.6 8.24C12.0693 8.47467 12.4427 8.81067 12.72 9.248C12.9973 9.67467 13.136 10.1813 13.136 10.768C13.136 11.184 13.072 11.5787 12.944 11.952C12.8267 12.3147 12.656 12.672 12.432 13.024C12.2187 13.3653 11.952 13.7173 11.632 14.08C11.312 14.4427 10.9547 14.8267 10.56 15.232C10.1653 15.6267 9.73867 16.0587 9.28 16.528H12.432C12.6133 16.528 12.7413 16.5173 12.816 16.496C12.8907 16.4747 12.96 16.432 13.024 16.368H13.168V16.528V18H6.912V16.656Z" fill="#191927"/>
<path fill-rule="evenodd" clip-rule="evenodd" d="M7.74133 23.1146C8.29983 22.5327 9.22232 22.5156 9.80176 23.0765L9.99998 23.2684L10.1982 23.0765C10.7776 22.5156 11.7001 22.5327 12.2586 23.1146C12.8171 23.6965 12.8002 24.6229 12.2207 25.1838L9.99998 27.3334L7.77925 25.1838C7.19981 24.6229 7.18283 23.6965 7.74133 23.1146Z" fill="#D93B55"/>
<path fill-rule="evenodd" clip-rule="evenodd" d="M24.2241 37.3435C25.8996 35.5978 28.667 35.5466 30.4054 37.2293L31 37.8049L31.5946 37.2293C33.333 35.5466 36.1004 35.5978 37.776 37.3435C39.4515 39.0893 39.4005 41.8686 37.6622 43.5512L31 50L24.3378 43.5512C22.5995 41.8686 22.5485 39.0893 24.2241 37.3435Z" fill="#D93B55"/>
<path d="M55.088 69.344C54.4693 69.9413 53.92 70.4693 53.44 70.928C52.96 71.3973 52.544 71.8187 52.192 72.192C51.8293 72.576 51.5307 72.9333 51.296 73.264C51.0507 73.5947 50.8693 73.9147 50.752 74.224C50.6347 74.544 50.576 74.88 50.576 75.232C50.576 75.4667 50.608 75.6693 50.672 75.84C50.7253 76.0107 50.816 76.1493 50.944 76.256C51.0613 76.3733 51.2107 76.4587 51.392 76.512C51.5627 76.576 51.76 76.608 51.984 76.608C52.208 76.608 52.4213 76.5813 52.624 76.528C52.816 76.4747 53.0027 76.3947 53.184 76.288C53.3547 76.1813 53.5147 76.0373 53.664 75.856C53.76 75.7173 53.824 75.6053 53.856 75.52C53.8773 75.4453 53.8827 75.3653 53.872 75.28L53.968 75.168L54.08 75.248L55.328 76.208C55.0827 76.624 54.7893 76.9707 54.448 77.248C54.096 77.5253 53.712 77.7387 53.296 77.888C52.8693 78.0373 52.4267 78.112 51.968 78.112C51.392 78.112 50.8693 77.9947 50.4 77.76C49.9307 77.5253 49.5573 77.1893 49.28 76.752C49.0027 76.3253 48.864 75.8187 48.864 75.232C48.864 74.816 48.928 74.4213 49.056 74.048C49.1733 73.6853 49.344 73.328 49.568 72.976C49.7813 72.6347 50.048 72.2827 50.368 71.92C50.688 71.5573 51.0453 71.1733 51.44 70.768C51.8347 70.3733 52.2613 69.9413 52.72 69.472H49.568C49.3867 69.472 49.2587 69.4827 49.184 69.504C49.1093 69.5253 49.04 69.568 48.976 69.632H48.832V69.472V68H55.088V69.344Z" fill="#191927"/>
<path fill-rule="evenodd" clip-rule="evenodd" d="M54.2586 62.8854C53.7001 63.4673 52.7776 63.4844 52.1982 62.9235L52 62.7316L51.8017 62.9235C51.2223 63.4844 50.2998 63.4673 49.7413 62.8854C49.1828 62.3035 49.1998 61.3771 49.7792 60.8162L52 58.6666L54.2207 60.8162C54.8001 61.3771 54.8171 62.3035 54.2586 62.8854Z" fill="#D93B55"/>
</svg>
