<svg width="62" height="86" viewBox="0 0 62 86" fill="none" xmlns="http://www.w3.org/2000/svg">
<rect width="62" height="86" rx="4" fill="#FAFAFB"/>
<path d="M9.76 18.192C9.17333 18.192 8.60267 18.096 8.048 17.904C7.49333 17.7013 7.04533 17.3973 6.704 16.992L7.616 15.664L7.712 15.536L7.84 15.616C7.86133 15.7013 7.88267 15.7867 7.904 15.872C7.936 15.9573 8.016 16.064 8.144 16.192C8.336 16.3627 8.56 16.5013 8.816 16.608C9.08267 16.704 9.37067 16.752 9.68 16.752C10.0213 16.752 10.3093 16.688 10.544 16.56C10.7787 16.4213 10.9547 16.2347 11.072 16C11.2 15.7547 11.264 15.4773 11.264 15.168C11.264 14.8373 11.2053 14.56 11.088 14.336C10.9813 14.1013 10.816 13.92 10.592 13.792C10.3787 13.664 10.1067 13.5787 9.776 13.536C9.456 13.4933 9.07733 13.4987 8.64 13.552V12.144C9.10933 12.1547 9.49867 12.1227 9.808 12.048C10.1173 11.9733 10.3627 11.8667 10.544 11.728C10.7253 11.5893 10.8533 11.4293 10.928 11.248C11.0027 11.056 11.04 10.8587 11.04 10.656C11.04 10.4533 11.008 10.2773 10.944 10.128C10.88 9.968 10.7893 9.83467 10.672 9.728C10.5653 9.61067 10.4267 9.52533 10.256 9.472C10.096 9.408 9.91467 9.376 9.712 9.376C9.49867 9.376 9.28533 9.40267 9.072 9.456C8.86933 9.50933 8.672 9.59467 8.48 9.712C8.29867 9.81867 8.128 9.96267 7.968 10.144L6.928 9.088C7.312 8.66133 7.75467 8.35733 8.256 8.176C8.768 7.984 9.27467 7.888 9.776 7.888C10.3627 7.888 10.88 8 11.328 8.224C11.7867 8.448 12.144 8.752 12.4 9.136C12.656 9.52 12.784 9.96267 12.784 10.464C12.784 10.8267 12.7093 11.1573 12.56 11.456C12.4213 11.7547 12.2293 12.0107 11.984 12.224C11.7493 12.4267 11.4987 12.5867 11.232 12.704C11.5413 12.8107 11.8347 12.9707 12.112 13.184C12.4 13.3973 12.6293 13.6747 12.8 14.016C12.9813 14.3467 13.072 14.752 13.072 15.232C13.072 15.776 12.9387 16.272 12.672 16.72C12.4053 17.168 12.0267 17.5253 11.536 17.792C11.0453 18.0587 10.4533 18.192 9.76 18.192Z" fill="#191927"/>
<ellipse cx="9.99411" cy="23.4585" rx="1.47824" ry="1.45853" fill="#191927"/>
<circle cx="11.2023" cy="25.2659" r="1.46437" fill="#191927"/>
<circle cx="8.79768" cy="25.2659" r="1.46437" fill="#191927"/>
<rect x="9.74048" y="25.6765" width="0.502994" height="2.32258" fill="#191927"/>
<ellipse cx="30.9824" cy="38.3768" rx="4.43471" ry="4.37558" fill="#191927"/>
<circle cx="34.6069" cy="43.7991" r="4.3931" fill="#191927"/>
<circle cx="27.3931" cy="43.7991" r="4.3931" fill="#191927"/>
<rect x="30.2216" y="45.031" width="1.50898" height="6.96774" fill="#191927"/>
<path d="M52.24 67.808C52.8267 67.808 53.3973 67.904 53.952 68.096C54.5067 68.2987 54.9547 68.6027 55.296 69.008L54.384 70.336L54.288 70.464L54.16 70.384C54.1387 70.2987 54.1173 70.2133 54.096 70.128C54.064 70.0427 53.984 69.936 53.856 69.808C53.664 69.6373 53.44 69.4987 53.184 69.392C52.9173 69.296 52.6293 69.248 52.32 69.248C51.9787 69.248 51.6907 69.312 51.456 69.44C51.2213 69.5787 51.0453 69.7653 50.928 70C50.8 70.2453 50.736 70.5227 50.736 70.832C50.736 71.1627 50.7947 71.44 50.912 71.664C51.0187 71.8987 51.184 72.08 51.408 72.208C51.6213 72.336 51.8933 72.4213 52.224 72.464C52.544 72.5067 52.9227 72.5013 53.36 72.448V73.856C52.8907 73.8453 52.5013 73.8773 52.192 73.952C51.8827 74.0267 51.6373 74.1333 51.456 74.272C51.2747 74.4107 51.1467 74.5707 51.072 74.752C50.9973 74.944 50.96 75.1413 50.96 75.344C50.96 75.5467 50.992 75.7227 51.056 75.872C51.12 76.032 51.2107 76.1653 51.328 76.272C51.4347 76.3893 51.5733 76.4747 51.744 76.528C51.904 76.592 52.0853 76.624 52.288 76.624C52.5013 76.624 52.7147 76.5973 52.928 76.544C53.1307 76.4907 53.328 76.4053 53.52 76.288C53.7013 76.1813 53.872 76.0373 54.032 75.856L55.072 76.912C54.688 77.3387 54.2453 77.6427 53.744 77.824C53.232 78.016 52.7253 78.112 52.224 78.112C51.6373 78.112 51.12 78 50.672 77.776C50.2133 77.552 49.856 77.248 49.6 76.864C49.344 76.48 49.216 76.0373 49.216 75.536C49.216 75.1733 49.2907 74.8427 49.44 74.544C49.5787 74.2453 49.7707 73.9893 50.016 73.776C50.2507 73.5733 50.5013 73.4133 50.768 73.296C50.4587 73.1893 50.1653 73.0293 49.888 72.816C49.6 72.6027 49.3707 72.3253 49.2 71.984C49.0187 71.6533 48.928 71.248 48.928 70.768C48.928 70.224 49.0613 69.728 49.328 69.28C49.5947 68.832 49.9733 68.4747 50.464 68.208C50.9547 67.9413 51.5467 67.808 52.24 67.808Z" fill="#191927"/>
<ellipse cx="52.0058" cy="62.5415" rx="1.47824" ry="1.45853" transform="rotate(-180 52.0058 62.5415)" fill="#191927"/>
<circle cx="50.7977" cy="60.7341" r="1.46437" transform="rotate(-180 50.7977 60.7341)" fill="#191927"/>
<circle cx="53.2023" cy="60.7341" r="1.46437" transform="rotate(-180 53.2023 60.7341)" fill="#191927"/>
<rect x="52.2595" y="60.3235" width="0.502994" height="2.32258" transform="rotate(-180 52.2595 60.3235)" fill="#191927"/>
</svg>
