<svg width="62" height="86" viewBox="0 0 62 86" fill="none" xmlns="http://www.w3.org/2000/svg">
<rect width="62" height="86" rx="4" fill="#FAFAFB"/>
<path d="M10.7 21.24C9.96667 21.24 9.25333 21.12 8.56 20.88C7.86667 20.6267 7.30667 20.2467 6.88 19.74L8.02 18.08L8.14 17.92L8.3 18.02C8.32667 18.1267 8.35333 18.2333 8.38 18.34C8.42 18.4467 8.52 18.58 8.68 18.74C8.92 18.9533 9.2 19.1267 9.52 19.26C9.85333 19.38 10.2133 19.44 10.6 19.44C11.0267 19.44 11.3867 19.36 11.68 19.2C11.9733 19.0267 12.1933 18.7933 12.34 18.5C12.5 18.1933 12.58 17.8467 12.58 17.46C12.58 17.0467 12.5067 16.7 12.36 16.42C12.2267 16.1267 12.02 15.9 11.74 15.74C11.4733 15.58 11.1333 15.4733 10.72 15.42C10.32 15.3667 9.84667 15.3733 9.3 15.44V13.68C9.88667 13.6933 10.3733 13.6533 10.76 13.56C11.1467 13.4667 11.4533 13.3333 11.68 13.16C11.9067 12.9867 12.0667 12.7867 12.16 12.56C12.2533 12.32 12.3 12.0733 12.3 11.82C12.3 11.5667 12.26 11.3467 12.18 11.16C12.1 10.96 11.9867 10.7933 11.84 10.66C11.7067 10.5133 11.5333 10.4067 11.32 10.34C11.12 10.26 10.8933 10.22 10.64 10.22C10.3733 10.22 10.1067 10.2533 9.84 10.32C9.58667 10.3867 9.34 10.4933 9.1 10.64C8.87333 10.7733 8.66 10.9533 8.46 11.18L7.16 9.86C7.64 9.32667 8.19333 8.94667 8.82 8.72C9.46 8.48 10.0933 8.36 10.72 8.36C11.4533 8.36 12.1 8.5 12.66 8.78C13.2333 9.06 13.68 9.44 14 9.92C14.32 10.4 14.48 10.9533 14.48 11.58C14.48 12.0333 14.3867 12.4467 14.2 12.82C14.0267 13.1933 13.7867 13.5133 13.48 13.78C13.1867 14.0333 12.8733 14.2333 12.54 14.38C12.9267 14.5133 13.2933 14.7133 13.64 14.98C14 15.2467 14.2867 15.5933 14.5 16.02C14.7267 16.4333 14.84 16.94 14.84 17.54C14.84 18.22 14.6733 18.84 14.34 19.4C14.0067 19.96 13.5333 20.4067 12.92 20.74C12.3067 21.0733 11.5667 21.24 10.7 21.24Z" fill="#191927"/>
<ellipse cx="30.9652" cy="34.181" rx="8.89386" ry="8.77528" fill="#191927"/>
<circle cx="38.2342" cy="45.0553" r="8.81042" fill="#191927"/>
<circle cx="23.7665" cy="45.0553" r="8.81042" fill="#191927"/>
<rect x="29.416" y="46.1733" width="3.02628" height="13.9739" fill="#191927"/>
<path d="M37.7969 57.4231L37.7969 60.5946L25.1109 60.5946L25.1109 57.4231L37.7969 57.4231Z" fill="#191927"/>
<path d="M51.3 64.76C52.0333 64.76 52.7467 64.88 53.44 65.12C54.1333 65.3733 54.6933 65.7533 55.12 66.26L53.98 67.92L53.86 68.08L53.7 67.98C53.6733 67.8733 53.6467 67.7667 53.62 67.66C53.58 67.5533 53.48 67.42 53.32 67.26C53.08 67.0467 52.8 66.8733 52.48 66.74C52.1467 66.62 51.7867 66.56 51.4 66.56C50.9733 66.56 50.6133 66.64 50.32 66.8C50.0267 66.9733 49.8067 67.2067 49.66 67.5C49.5 67.8067 49.42 68.1533 49.42 68.54C49.42 68.9533 49.4933 69.3 49.64 69.58C49.7733 69.8733 49.98 70.1 50.26 70.26C50.5267 70.42 50.8667 70.5267 51.28 70.58C51.68 70.6333 52.1533 70.6267 52.7 70.56V72.32C52.1133 72.3067 51.6267 72.3467 51.24 72.44C50.8533 72.5333 50.5467 72.6667 50.32 72.84C50.0933 73.0133 49.9333 73.2133 49.84 73.44C49.7467 73.68 49.7 73.9267 49.7 74.18C49.7 74.4333 49.74 74.6533 49.82 74.84C49.9 75.04 50.0133 75.2067 50.16 75.34C50.2933 75.4867 50.4667 75.5933 50.68 75.66C50.88 75.74 51.1067 75.78 51.36 75.78C51.6267 75.78 51.8933 75.7467 52.16 75.68C52.4133 75.6133 52.66 75.5067 52.9 75.36C53.1267 75.2267 53.34 75.0467 53.54 74.82L54.84 76.14C54.36 76.6733 53.8067 77.0533 53.18 77.28C52.54 77.52 51.9067 77.64 51.28 77.64C50.5467 77.64 49.9 77.5 49.34 77.22C48.7667 76.94 48.32 76.56 48 76.08C47.68 75.6 47.52 75.0467 47.52 74.42C47.52 73.9667 47.6133 73.5533 47.8 73.18C47.9733 72.8067 48.2133 72.4867 48.52 72.22C48.8133 71.9667 49.1267 71.7667 49.46 71.62C49.0733 71.4867 48.7067 71.2867 48.36 71.02C48 70.7533 47.7133 70.4067 47.5 69.98C47.2733 69.5667 47.16 69.06 47.16 68.46C47.16 67.78 47.3267 67.16 47.66 66.6C47.9933 66.04 48.4667 65.5933 49.08 65.26C49.6933 64.9267 50.4333 64.76 51.3 64.76Z" fill="#191927"/>
</svg>
