<svg width="62" height="86" viewBox="0 0 62 86" fill="none" xmlns="http://www.w3.org/2000/svg">
<rect width="62" height="86" rx="4" fill="#FAFAFB"/>
<path d="M11.68 21V18.04H6.8V16.56L12.2 8.54H13.88V16.22H15.52V18.06H13.88V21H11.68ZM9.08 16.26H11.74V12.1L9.08 16.26Z" fill="#191927"/>
<ellipse cx="30.9652" cy="34.181" rx="8.89386" ry="8.77528" fill="#191927"/>
<circle cx="38.2342" cy="45.0553" r="8.81042" fill="#191927"/>
<circle cx="23.7665" cy="45.0553" r="8.81042" fill="#191927"/>
<rect x="29.416" y="46.1733" width="3.02628" height="13.9739" fill="#191927"/>
<path d="M37.7969 57.4231L37.7969 60.5946L25.1109 60.5946L25.1109 57.4231L37.7969 57.4231Z" fill="#191927"/>
<path d="M50.32 65V67.96H55.2V69.44L49.8 77.46H48.12V69.78H46.48V67.94H48.12V65H50.32ZM52.92 69.74H50.26V73.9L52.92 69.74Z" fill="#191927"/>
</svg>
