<svg width="62" height="86" viewBox="0 0 62 86" fill="none" xmlns="http://www.w3.org/2000/svg">
<rect width="62" height="86" rx="4" fill="#FAFAFB"/>
<path d="M10.544 18V15.632H6.64V14.448L10.96 8.032H12.304V14.176H13.616V15.648H12.304V18H10.544ZM8.464 14.208H10.592V10.88L8.464 14.208Z" fill="#191927"/>
<ellipse cx="9.99411" cy="23.4585" rx="1.47824" ry="1.45853" fill="#191927"/>
<circle cx="11.2023" cy="25.2659" r="1.46437" fill="#191927"/>
<circle cx="8.79768" cy="25.2659" r="1.46437" fill="#191927"/>
<rect x="9.74048" y="25.6765" width="0.502994" height="2.32258" fill="#191927"/>
<ellipse cx="30.9824" cy="38.3768" rx="4.43471" ry="4.37558" fill="#191927"/>
<circle cx="34.6069" cy="43.7991" r="4.3931" fill="#191927"/>
<circle cx="27.3931" cy="43.7991" r="4.3931" fill="#191927"/>
<rect x="30.2216" y="45.031" width="1.50898" height="6.96774" fill="#191927"/>
<path d="M51.456 68V70.368H55.36V71.552L51.04 77.968H49.696V71.824H48.384V70.352H49.696V68H51.456ZM53.536 71.792H51.408V75.12L53.536 71.792Z" fill="#191927"/>
<ellipse cx="52.0058" cy="62.5415" rx="1.47824" ry="1.45853" transform="rotate(-180 52.0058 62.5415)" fill="#191927"/>
<circle cx="50.7977" cy="60.7341" r="1.46437" transform="rotate(-180 50.7977 60.7341)" fill="#191927"/>
<circle cx="53.2023" cy="60.7341" r="1.46437" transform="rotate(-180 53.2023 60.7341)" fill="#191927"/>
<rect x="52.2595" y="60.3235" width="0.502994" height="2.32258" transform="rotate(-180 52.2595 60.3235)" fill="#191927"/>
</svg>
