<svg width="62" height="86" viewBox="0 0 62 86" fill="none" xmlns="http://www.w3.org/2000/svg">
<rect width="62" height="86" rx="4" fill="#FAFAFB"/>
<path d="M10.544 18V15.632H6.64V14.448L10.96 8.032H12.304V14.176H13.616V15.648H12.304V18H10.544ZM8.464 14.208H10.592V10.88L8.464 14.208Z" fill="#191927"/>
<path d="M9.99998 22L12.6666 25L9.99998 28L7.33331 25L9.99998 22Z" fill="#D93B55"/>
<path d="M31 34L39 43L31 52L23 43L31 34Z" fill="#D93B55"/>
<path d="M51.456 68V70.368H55.36V71.552L51.04 77.968H49.696V71.824H48.384V70.352H49.696V68H51.456ZM53.536 71.792H51.408V75.12L53.536 71.792Z" fill="#191927"/>
<path d="M52 64L49.3333 61L52 58L54.6666 61L52 64Z" fill="#D93B55"/>
</svg>
