<svg width="62" height="86" viewBox="0 0 62 86" fill="none" xmlns="http://www.w3.org/2000/svg">
<rect width="62" height="86" rx="4" fill="#FAFAFB"/>
<path d="M10.544 18V15.632H6.64V14.448L10.96 8.032H12.304V14.176H13.616V15.648H12.304V18H10.544ZM8.464 14.208H10.592V10.88L8.464 14.208Z" fill="#191927"/>
<path fill-rule="evenodd" clip-rule="evenodd" d="M7.74133 23.1146C8.29983 22.5327 9.22232 22.5156 9.80176 23.0765L9.99998 23.2684L10.1982 23.0765C10.7776 22.5156 11.7001 22.5327 12.2586 23.1146C12.8171 23.6965 12.8002 24.6229 12.2207 25.1838L9.99998 27.3334L7.77925 25.1838C7.19981 24.6229 7.18283 23.6965 7.74133 23.1146Z" fill="#D93B55"/>
<path fill-rule="evenodd" clip-rule="evenodd" d="M24.2241 37.3435C25.8996 35.5978 28.667 35.5466 30.4054 37.2293L31 37.8049L31.5946 37.2293C33.333 35.5466 36.1004 35.5978 37.776 37.3435C39.4515 39.0893 39.4005 41.8686 37.6622 43.5512L31 50L24.3378 43.5512C22.5995 41.8686 22.5485 39.0893 24.2241 37.3435Z" fill="#D93B55"/>
<path d="M51.456 68V70.368H55.36V71.552L51.04 77.968H49.696V71.824H48.384V70.352H49.696V68H51.456ZM53.536 71.792H51.408V75.12L53.536 71.792Z" fill="#191927"/>
<path fill-rule="evenodd" clip-rule="evenodd" d="M54.2586 62.8854C53.7001 63.4673 52.7776 63.4844 52.1982 62.9235L52 62.7316L51.8017 62.9235C51.2223 63.4844 50.2998 63.4673 49.7413 62.8854C49.1828 62.3035 49.1998 61.3771 49.7792 60.8162L52 58.6666L54.2207 60.8162C54.8001 61.3771 54.8171 62.3035 54.2586 62.8854Z" fill="#D93B55"/>
</svg>
