<svg width="62" height="86" viewBox="0 0 62 86" fill="none" xmlns="http://www.w3.org/2000/svg">
<rect width="62" height="86" rx="4" fill="#FAFAFB"/>
<path d="M11.68 21V18.04H6.8V16.56L12.2 8.54H13.88V16.22H15.52V18.06H13.88V21H11.68ZM9.08 16.26H11.74V12.1L9.08 16.26Z" fill="#191927"/>
<path fill-rule="evenodd" clip-rule="evenodd" d="M17.6665 31.8692C20.9636 28.4338 26.4095 28.3332 29.8302 31.6443L31.0003 32.777L32.1705 31.6443C35.5912 28.3332 41.037 28.4338 44.3341 31.8692C47.6312 35.3045 47.531 40.7736 44.1103 44.0847L31.0003 56.7747L17.8904 44.0847C14.4697 40.7736 14.3694 35.3045 17.6665 31.8692Z" fill="#D93B55"/>
<path d="M50.32 65V67.96H55.2V69.44L49.8 77.46H48.12V69.78H46.48V67.94H48.12V65H50.32ZM52.92 69.74H50.26V73.9L52.92 69.74Z" fill="#191927"/>
</svg>
