<svg width="62" height="86" viewBox="0 0 62 86" fill="none" xmlns="http://www.w3.org/2000/svg">
<rect width="62" height="86" rx="4" fill="#FAFAFB"/>
<path d="M10.032 18.192C9.33867 18.192 8.70933 18.0587 8.144 17.792C7.58933 17.5253 7.16267 17.1307 6.864 16.608L8.128 15.568L8.256 15.472L8.336 15.584C8.336 15.6693 8.352 15.7493 8.384 15.824C8.416 15.8987 8.48533 16.0053 8.592 16.144C8.784 16.336 8.99733 16.48 9.232 16.576C9.46667 16.672 9.728 16.72 10.016 16.72C10.2507 16.72 10.4693 16.6773 10.672 16.592C10.8747 16.496 11.0453 16.3627 11.184 16.192C11.3333 16.0213 11.4507 15.8187 11.536 15.584C11.6213 15.3493 11.664 15.0987 11.664 14.832C11.664 14.5333 11.6213 14.2667 11.536 14.032C11.4613 13.7867 11.3493 13.5787 11.2 13.408C11.0613 13.2267 10.8853 13.088 10.672 12.992C10.4693 12.896 10.2347 12.848 9.968 12.848C9.76533 12.848 9.56267 12.88 9.36 12.944C9.15733 12.9973 8.97067 13.0827 8.8 13.2C8.64 13.3067 8.49067 13.4507 8.352 13.632L7.248 13.344L7.616 8.032H12.944V9.488H9.12L8.976 11.744C9.104 11.68 9.248 11.6213 9.408 11.568C9.568 11.504 9.73333 11.4613 9.904 11.44C10.0747 11.408 10.2347 11.392 10.384 11.392C10.832 11.392 11.2373 11.4667 11.6 11.616C11.9627 11.7547 12.2773 11.968 12.544 12.256C12.8107 12.5333 13.0133 12.88 13.152 13.296C13.3013 13.712 13.376 14.1813 13.376 14.704C13.376 15.4187 13.2267 16.0373 12.928 16.56C12.64 17.0827 12.2453 17.488 11.744 17.776C11.2533 18.0533 10.6827 18.192 10.032 18.192Z" fill="#191927"/>
<ellipse cx="9.99411" cy="23.4585" rx="1.47824" ry="1.45853" fill="#191927"/>
<circle cx="11.2023" cy="25.2659" r="1.46437" fill="#191927"/>
<circle cx="8.79768" cy="25.2659" r="1.46437" fill="#191927"/>
<rect x="9.74048" y="25.6765" width="0.502994" height="2.32258" fill="#191927"/>
<ellipse cx="30.9824" cy="38.3768" rx="4.43471" ry="4.37558" fill="#191927"/>
<circle cx="34.6069" cy="43.7991" r="4.3931" fill="#191927"/>
<circle cx="27.3931" cy="43.7991" r="4.3931" fill="#191927"/>
<rect x="30.2216" y="45.031" width="1.50898" height="6.96774" fill="#191927"/>
<path d="M51.968 67.808C52.6613 67.808 53.2907 67.9413 53.856 68.208C54.4107 68.4747 54.8373 68.8693 55.136 69.392L53.872 70.432L53.744 70.528L53.664 70.416C53.664 70.3307 53.648 70.2507 53.616 70.176C53.584 70.1013 53.5147 69.9947 53.408 69.856C53.216 69.664 53.0027 69.52 52.768 69.424C52.5333 69.328 52.272 69.28 51.984 69.28C51.7493 69.28 51.5307 69.3227 51.328 69.408C51.1253 69.504 50.9547 69.6373 50.816 69.808C50.6667 69.9787 50.5493 70.1813 50.464 70.416C50.3787 70.6507 50.336 70.9013 50.336 71.168C50.336 71.4667 50.3787 71.7333 50.464 71.968C50.5387 72.2133 50.6507 72.4213 50.8 72.592C50.9387 72.7733 51.1147 72.912 51.328 73.008C51.5307 73.104 51.7653 73.152 52.032 73.152C52.2347 73.152 52.4373 73.12 52.64 73.056C52.8427 73.0027 53.0293 72.9173 53.2 72.8C53.36 72.6933 53.5093 72.5493 53.648 72.368L54.752 72.656L54.384 77.968H49.056V76.512H52.88L53.024 74.256C52.896 74.32 52.752 74.3787 52.592 74.432C52.432 74.496 52.2667 74.5387 52.096 74.56C51.9253 74.592 51.7653 74.608 51.616 74.608C51.168 74.608 50.7627 74.5333 50.4 74.384C50.0373 74.2453 49.7227 74.032 49.456 73.744C49.1893 73.4667 48.9867 73.12 48.848 72.704C48.6987 72.288 48.624 71.8187 48.624 71.296C48.624 70.5813 48.7733 69.9627 49.072 69.44C49.36 68.9173 49.7547 68.512 50.256 68.224C50.7467 67.9467 51.3173 67.808 51.968 67.808Z" fill="#191927"/>
<ellipse cx="52.0058" cy="62.5415" rx="1.47824" ry="1.45853" transform="rotate(-180 52.0058 62.5415)" fill="#191927"/>
<circle cx="50.7977" cy="60.7341" r="1.46437" transform="rotate(-180 50.7977 60.7341)" fill="#191927"/>
<circle cx="53.2023" cy="60.7341" r="1.46437" transform="rotate(-180 53.2023 60.7341)" fill="#191927"/>
<rect x="52.2595" y="60.3235" width="0.502994" height="2.32258" transform="rotate(-180 52.2595 60.3235)" fill="#191927"/>
</svg>
