<svg width="62" height="86" viewBox="0 0 62 86" fill="none" xmlns="http://www.w3.org/2000/svg">
<rect width="62" height="86" rx="4" fill="#FAFAFB"/>
<path d="M10.16 18.176C9.44533 18.176 8.83733 17.9787 8.336 17.584C7.83467 17.1893 7.456 16.64 7.2 15.936C6.944 15.2213 6.816 14.384 6.816 13.424C6.816 12.2507 6.976 11.2533 7.296 10.432C7.62667 9.6 8.06933 8.96533 8.624 8.528C9.18933 8.09067 9.83467 7.872 10.56 7.872C10.9973 7.872 11.44 7.952 11.888 8.112C12.3467 8.26133 12.7467 8.50667 13.088 8.848L12.096 9.952L12 10.08L11.872 9.984C11.8613 9.89867 11.8293 9.82933 11.776 9.776C11.7227 9.712 11.6267 9.632 11.488 9.536C11.4133 9.49333 11.3333 9.46133 11.248 9.44C11.1627 9.41867 11.0773 9.40267 10.992 9.392C10.9067 9.38133 10.816 9.376 10.72 9.376C10.56 9.376 10.3893 9.39733 10.208 9.44C10.0267 9.48267 9.84533 9.56267 9.664 9.68C9.49333 9.79733 9.328 9.968 9.168 10.192C9.01867 10.4053 8.89067 10.688 8.784 11.04C8.688 11.3813 8.624 11.808 8.592 12.32C8.73067 12.128 8.90133 11.968 9.104 11.84C9.30667 11.712 9.52 11.616 9.744 11.552C9.97867 11.4773 10.208 11.44 10.432 11.44C10.8267 11.44 11.1947 11.5093 11.536 11.648C11.888 11.7867 12.192 11.9947 12.448 12.272C12.704 12.5387 12.9013 12.8747 13.04 13.28C13.1893 13.6853 13.264 14.16 13.264 14.704C13.264 15.3653 13.1307 15.9573 12.864 16.48C12.5973 17.0027 12.2293 17.4187 11.76 17.728C11.2907 18.0267 10.7573 18.176 10.16 18.176ZM10.192 16.72C10.3947 16.72 10.5813 16.672 10.752 16.576C10.9227 16.48 11.072 16.3467 11.2 16.176C11.328 15.9947 11.424 15.7813 11.488 15.536C11.552 15.2907 11.584 15.0133 11.584 14.704C11.584 14.384 11.5467 14.112 11.472 13.888C11.3973 13.6533 11.2907 13.4613 11.152 13.312C11.0133 13.1627 10.8587 13.0507 10.688 12.976C10.5173 12.9013 10.3467 12.864 10.176 12.864C10.016 12.864 9.86133 12.8907 9.712 12.944C9.57333 12.9973 9.43467 13.072 9.296 13.168C9.168 13.264 9.04533 13.3813 8.928 13.52C8.82133 13.648 8.72533 13.792 8.64 13.952C8.61867 14.3573 8.64 14.7307 8.704 15.072C8.768 15.4027 8.86933 15.696 9.008 15.952C9.14667 16.1973 9.31733 16.3893 9.52 16.528C9.72267 16.656 9.94667 16.72 10.192 16.72Z" fill="#191927"/>
<path d="M10 22L12.6667 25L10 28L7.33334 25L10 22Z" fill="#D93B55"/>
<path d="M31 34L39 43L31 52L23 43L31 34Z" fill="#D93B55"/>
<path d="M51.84 67.824C52.5547 67.824 53.1627 68.0213 53.664 68.416C54.1653 68.8107 54.544 69.36 54.8 70.064C55.056 70.7787 55.184 71.616 55.184 72.576C55.184 73.7493 55.024 74.7467 54.704 75.568C54.3733 76.4 53.9307 77.0347 53.376 77.472C52.8107 77.9093 52.1653 78.128 51.44 78.128C51.0027 78.128 50.56 78.048 50.112 77.888C49.6533 77.7387 49.2533 77.4933 48.912 77.152L49.904 76.048L50 75.92L50.128 76.016C50.1387 76.1013 50.1707 76.1707 50.224 76.224C50.2773 76.288 50.3733 76.368 50.512 76.464C50.5867 76.5067 50.6667 76.5387 50.752 76.56C50.8373 76.5813 50.9227 76.5973 51.008 76.608C51.0933 76.6187 51.184 76.624 51.28 76.624C51.44 76.624 51.6107 76.6027 51.792 76.56C51.9733 76.5173 52.1547 76.4373 52.336 76.32C52.5067 76.2027 52.672 76.032 52.832 75.808C52.9813 75.5947 53.1093 75.312 53.216 74.96C53.312 74.6187 53.376 74.192 53.408 73.68C53.2693 73.872 53.0987 74.032 52.896 74.16C52.6933 74.288 52.48 74.384 52.256 74.448C52.0213 74.5227 51.792 74.56 51.568 74.56C51.1733 74.56 50.8053 74.4907 50.464 74.352C50.112 74.2133 49.808 74.0053 49.552 73.728C49.296 73.4613 49.0987 73.1253 48.96 72.72C48.8107 72.3147 48.736 71.84 48.736 71.296C48.736 70.6347 48.8693 70.0427 49.136 69.52C49.4027 68.9973 49.7707 68.5813 50.24 68.272C50.7093 67.9733 51.2427 67.824 51.84 67.824ZM51.808 69.28C51.6053 69.28 51.4187 69.328 51.248 69.424C51.0773 69.52 50.928 69.6533 50.8 69.824C50.672 70.0053 50.576 70.2187 50.512 70.464C50.448 70.7093 50.416 70.9867 50.416 71.296C50.416 71.616 50.4533 71.888 50.528 72.112C50.6027 72.3467 50.7093 72.5387 50.848 72.688C50.9867 72.8373 51.1413 72.9493 51.312 73.024C51.4827 73.0987 51.6533 73.136 51.824 73.136C51.984 73.136 52.1387 73.1093 52.288 73.056C52.4267 73.0027 52.5653 72.928 52.704 72.832C52.832 72.736 52.9547 72.6187 53.072 72.48C53.1787 72.352 53.2747 72.208 53.36 72.048C53.3813 71.6427 53.36 71.2693 53.296 70.928C53.232 70.5973 53.1307 70.304 52.992 70.048C52.8533 69.8027 52.6827 69.6107 52.48 69.472C52.2773 69.344 52.0533 69.28 51.808 69.28Z" fill="#191927"/>
<path d="M52 64L49.3334 61L52 58L54.6667 61L52 64Z" fill="#D93B55"/>
</svg>
