<svg width="62" height="86" viewBox="0 0 62 86" fill="none" xmlns="http://www.w3.org/2000/svg">
<rect width="62" height="86" rx="4" fill="#FAFAFB"/>
<path d="M7.984 18C8.304 17.0293 8.624 16.08 8.944 15.152C9.27467 14.224 9.616 13.296 9.968 12.368C10.32 11.44 10.6827 10.512 11.056 9.584H7.04V8.032H13.088V9.024C12.7893 9.74933 12.4907 10.48 12.192 11.216C11.904 11.9413 11.6267 12.6773 11.36 13.424C11.0933 14.16 10.832 14.912 10.576 15.68C10.3307 16.4373 10.0907 17.2107 9.856 18H7.984Z" fill="#191927"/>
<ellipse cx="9.99417" cy="23.4585" rx="1.47824" ry="1.45853" fill="#191927"/>
<circle cx="11.2023" cy="25.2659" r="1.46437" fill="#191927"/>
<circle cx="8.79774" cy="25.2659" r="1.46437" fill="#191927"/>
<rect x="9.74051" y="25.6765" width="0.502994" height="2.32258" fill="#191927"/>
<ellipse cx="30.9825" cy="38.3768" rx="4.43471" ry="4.37558" fill="#191927"/>
<circle cx="34.6069" cy="43.7991" r="4.3931" fill="#191927"/>
<circle cx="27.3931" cy="43.7991" r="4.3931" fill="#191927"/>
<rect x="30.2215" y="45.031" width="1.50898" height="6.96774" fill="#191927"/>
<path d="M54.016 68C53.696 68.9707 53.376 69.92 53.056 70.848C52.7253 71.776 52.384 72.704 52.032 73.632C51.68 74.56 51.3173 75.488 50.944 76.416H54.96V77.968H48.912V76.976C49.2107 76.2507 49.5093 75.52 49.808 74.784C50.096 74.0587 50.3733 73.3227 50.64 72.576C50.9067 71.84 51.168 71.088 51.424 70.32C51.6693 69.5627 51.9093 68.7893 52.144 68H54.016Z" fill="#191927"/>
<ellipse cx="52.0059" cy="62.5415" rx="1.47824" ry="1.45853" transform="rotate(-180 52.0059 62.5415)" fill="#191927"/>
<circle cx="50.7977" cy="60.7341" r="1.46437" transform="rotate(-180 50.7977 60.7341)" fill="#191927"/>
<circle cx="53.2023" cy="60.7341" r="1.46437" transform="rotate(-180 53.2023 60.7341)" fill="#191927"/>
<rect x="52.2595" y="60.3235" width="0.502994" height="2.32258" transform="rotate(-180 52.2595 60.3235)" fill="#191927"/>
</svg>
