<svg width="62" height="86" viewBox="0 0 62 86" fill="none" xmlns="http://www.w3.org/2000/svg">
<rect width="62" height="86" rx="4" fill="#FAFAFB"/>
<path d="M7.984 18C8.304 17.0293 8.624 16.08 8.944 15.152C9.27467 14.224 9.616 13.296 9.968 12.368C10.32 11.44 10.6827 10.512 11.056 9.584H7.04V8.032H13.088V9.024C12.7893 9.74933 12.4907 10.48 12.192 11.216C11.904 11.9413 11.6267 12.6773 11.36 13.424C11.0933 14.16 10.832 14.912 10.576 15.68C10.3307 16.4373 10.0907 17.2107 9.856 18H7.984Z" fill="#191927"/>
<path d="M10 22L12.6667 25L10 28L7.33334 25L10 22Z" fill="#D93B55"/>
<path d="M31 34L39 43L31 52L23 43L31 34Z" fill="#D93B55"/>
<path d="M54.016 68C53.696 68.9707 53.376 69.92 53.056 70.848C52.7253 71.776 52.384 72.704 52.032 73.632C51.68 74.56 51.3173 75.488 50.944 76.416H54.96V77.968H48.912V76.976C49.2107 76.2507 49.5093 75.52 49.808 74.784C50.096 74.0587 50.3733 73.3227 50.64 72.576C50.9067 71.84 51.168 71.088 51.424 70.32C51.6693 69.5627 51.9093 68.7893 52.144 68H54.016Z" fill="#191927"/>
<path d="M52 64L49.3334 61L52 58L54.6667 61L52 64Z" fill="#D93B55"/>
</svg>
