<svg width="62" height="86" viewBox="0 0 62 86" fill="none" xmlns="http://www.w3.org/2000/svg">
<rect width="62" height="86" rx="4" fill="#FAFAFB"/>
<path d="M7.984 18C8.304 17.0293 8.624 16.08 8.944 15.152C9.27467 14.224 9.616 13.296 9.968 12.368C10.32 11.44 10.6827 10.512 11.056 9.584H7.04V8.032H13.088V9.024C12.7893 9.74933 12.4907 10.48 12.192 11.216C11.904 11.9413 11.6267 12.6773 11.36 13.424C11.0933 14.16 10.832 14.912 10.576 15.68C10.3307 16.4373 10.0907 17.2107 9.856 18H7.984Z" fill="#191927"/>
<path fill-rule="evenodd" clip-rule="evenodd" d="M7.74136 23.1146C8.29986 22.5327 9.22235 22.5156 9.8018 23.0765L10 23.2684L10.1982 23.0765C10.7777 22.5156 11.7002 22.5327 12.2587 23.1146C12.8172 23.6965 12.8002 24.6229 12.2207 25.1838L10 27.3334L7.77928 25.1838C7.19984 24.6229 7.18286 23.6965 7.74136 23.1146Z" fill="#D93B55"/>
<path fill-rule="evenodd" clip-rule="evenodd" d="M24.2241 37.3435C25.8996 35.5978 28.667 35.5466 30.4054 37.2293L31 37.8049L31.5946 37.2293C33.333 35.5466 36.1004 35.5978 37.776 37.3435C39.4515 39.0893 39.4005 41.8686 37.6622 43.5512L31 50L24.3378 43.5512C22.5995 41.8686 22.5485 39.0893 24.2241 37.3435Z" fill="#D93B55"/>
<path d="M54.016 68C53.696 68.9707 53.376 69.92 53.056 70.848C52.7253 71.776 52.384 72.704 52.032 73.632C51.68 74.56 51.3173 75.488 50.944 76.416H54.96V77.968H48.912V76.976C49.2107 76.2507 49.5093 75.52 49.808 74.784C50.096 74.0587 50.3733 73.3227 50.64 72.576C50.9067 71.84 51.168 71.088 51.424 70.32C51.6693 69.5627 51.9093 68.7893 52.144 68H54.016Z" fill="#191927"/>
<path fill-rule="evenodd" clip-rule="evenodd" d="M54.2587 62.8854C53.7002 63.4673 52.7777 63.4844 52.1982 62.9235L52 62.7316L51.8018 62.9235C51.2224 63.4844 50.2999 63.4673 49.7414 62.8854C49.1829 62.3035 49.1998 61.3771 49.7793 60.8162L52 58.6666L54.2207 60.8162C54.8002 61.3771 54.8172 62.3035 54.2587 62.8854Z" fill="#D93B55"/>
</svg>
