<svg width="62" height="86" viewBox="0 0 62 86" fill="none" xmlns="http://www.w3.org/2000/svg">
<rect width="62" height="86" rx="4" fill="#FAFAFB"/>
<path d="M7.984 18C8.304 17.0293 8.624 16.08 8.944 15.152C9.27467 14.224 9.616 13.296 9.968 12.368C10.32 11.44 10.6827 10.512 11.056 9.584H7.04V8.032H13.088V9.024C12.7893 9.74933 12.4907 10.48 12.192 11.216C11.904 11.9413 11.6267 12.6773 11.36 13.424C11.0933 14.16 10.832 14.912 10.576 15.68C10.3307 16.4373 10.0907 17.2107 9.856 18H7.984Z" fill="#191927"/>
<path fill-rule="evenodd" clip-rule="evenodd" d="M12.2587 26.1597C11.7002 26.7335 10.7777 26.7503 10.1982 26.1973L10 26.0081L9.80181 26.1973C9.22236 26.7503 8.29987 26.7335 7.74137 26.1597C7.18287 25.586 7.19985 24.6725 7.77929 24.1195L10 22L12.2207 24.1195C12.8002 24.6725 12.8172 25.586 12.2587 26.1597Z" fill="#191927"/>
<rect x="9.74454" y="25.6765" width="0.502994" height="2.32335" fill="#191927"/>
<path fill-rule="evenodd" clip-rule="evenodd" d="M37.7759 46.4792C36.1004 48.2005 33.333 48.251 31.5946 46.5919L31 46.0244L30.4054 46.5919C28.667 48.251 25.8996 48.2005 24.224 46.4792C22.5485 44.7579 22.5995 42.0176 24.3378 40.3585L31 34L37.6622 40.3585C39.4005 42.0176 39.4515 44.7579 37.7759 46.4792Z" fill="#191927"/>
<rect x="30.2336" y="45.0298" width="1.50898" height="6.97006" fill="#191927"/>
<path d="M54.016 68C53.696 68.9707 53.376 69.92 53.056 70.848C52.7253 71.776 52.384 72.704 52.032 73.632C51.68 74.56 51.3173 75.488 50.944 76.416H54.96V77.968H48.912V76.976C49.2107 76.2507 49.5093 75.52 49.808 74.784C50.096 74.0587 50.3733 73.3227 50.64 72.576C50.9067 71.84 51.168 71.088 51.424 70.32C51.6693 69.5627 51.9093 68.7893 52.144 68H54.016Z" fill="#191927"/>
<path fill-rule="evenodd" clip-rule="evenodd" d="M49.7414 59.8403C50.2999 59.2665 51.2224 59.2497 51.8018 59.8027L52 59.9919L52.1982 59.8027C52.7777 59.2497 53.7002 59.2665 54.2587 59.8403C54.8172 60.414 54.8002 61.3275 54.2207 61.8805L52 64L49.7793 61.8805C49.1998 61.3275 49.1829 60.414 49.7414 59.8403Z" fill="#191927"/>
<rect x="52.2555" y="60.3235" width="0.502994" height="2.32335" transform="rotate(-180 52.2555 60.3235)" fill="#191927"/>
</svg>
