<svg width="62" height="86" viewBox="0 0 62 86" fill="none" xmlns="http://www.w3.org/2000/svg">
<rect width="62" height="86" rx="4" fill="#FAFAFB"/>
<path d="M10 18.176C9.328 18.176 8.74133 18.0587 8.24 17.824C7.74933 17.5787 7.36533 17.248 7.088 16.832C6.82133 16.416 6.688 15.952 6.688 15.44C6.688 15.0133 6.768 14.6293 6.928 14.288C7.088 13.9467 7.30667 13.6427 7.584 13.376C7.872 13.0987 8.19733 12.8693 8.56 12.688C8.29333 12.5173 8.05333 12.3147 7.84 12.08C7.62667 11.8453 7.46133 11.5893 7.344 11.312C7.22667 11.024 7.168 10.7307 7.168 10.432C7.168 9.952 7.28533 9.52 7.52 9.136C7.75467 8.752 8.09067 8.448 8.528 8.224C8.96533 7.98933 9.488 7.872 10.096 7.872C10.7147 7.872 11.2373 7.984 11.664 8.208C12.1013 8.42133 12.432 8.71467 12.656 9.088C12.88 9.46133 12.992 9.87733 12.992 10.336C12.992 10.6027 12.96 10.8533 12.896 11.088C12.832 11.3227 12.7413 11.5413 12.624 11.744C12.5067 11.936 12.3627 12.1173 12.192 12.288C12.032 12.4587 11.8453 12.608 11.632 12.736C11.8987 12.8747 12.1387 13.04 12.352 13.232C12.5653 13.424 12.7413 13.632 12.88 13.856C13.0293 14.08 13.1413 14.32 13.216 14.576C13.2907 14.832 13.328 15.104 13.328 15.392C13.328 15.9253 13.1893 16.4053 12.912 16.832C12.6347 17.248 12.2453 17.5787 11.744 17.824C11.2533 18.0587 10.672 18.176 10 18.176ZM10.032 16.688C10.3627 16.688 10.64 16.6293 10.864 16.512C11.088 16.384 11.2587 16.2133 11.376 16C11.4933 15.7867 11.552 15.5467 11.552 15.28C11.552 15.0667 11.5093 14.864 11.424 14.672C11.3387 14.48 11.2107 14.304 11.04 14.144C10.88 13.984 10.688 13.84 10.464 13.712C10.24 13.5733 9.98933 13.4613 9.712 13.376C9.53067 13.472 9.36 13.5893 9.2 13.728C9.05067 13.856 8.92267 14 8.816 14.16C8.70933 14.3093 8.624 14.4747 8.56 14.656C8.50667 14.8267 8.48 15.0187 8.48 15.232C8.48 15.5093 8.53867 15.76 8.656 15.984C8.784 16.1973 8.96533 16.368 9.2 16.496C9.43467 16.624 9.712 16.688 10.032 16.688ZM10.336 12.192C10.4853 12.0853 10.6187 11.968 10.736 11.84C10.8533 11.7013 10.9493 11.5573 11.024 11.408C11.1093 11.2587 11.1733 11.104 11.216 10.944C11.2587 10.784 11.28 10.624 11.28 10.464C11.28 10.2507 11.2267 10.064 11.12 9.904C11.024 9.73333 10.8853 9.6 10.704 9.504C10.5227 9.39733 10.304 9.344 10.048 9.344C9.792 9.344 9.57867 9.392 9.408 9.488C9.23733 9.584 9.104 9.71733 9.008 9.888C8.912 10.048 8.864 10.2293 8.864 10.432C8.864 10.6347 8.90133 10.8213 8.976 10.992C9.05067 11.152 9.152 11.3013 9.28 11.44C9.41867 11.5787 9.57867 11.712 9.76 11.84C9.94133 11.9573 10.1333 12.0747 10.336 12.192Z" fill="#191927"/>
<ellipse cx="9.99417" cy="23.4585" rx="1.47824" ry="1.45853" fill="#191927"/>
<circle cx="11.2023" cy="25.2659" r="1.46437" fill="#191927"/>
<circle cx="8.79774" cy="25.2659" r="1.46437" fill="#191927"/>
<rect x="9.74051" y="25.6765" width="0.502994" height="2.32258" fill="#191927"/>
<ellipse cx="30.9825" cy="38.3768" rx="4.43471" ry="4.37558" fill="#191927"/>
<circle cx="34.6069" cy="43.7991" r="4.3931" fill="#191927"/>
<circle cx="27.3931" cy="43.7991" r="4.3931" fill="#191927"/>
<rect x="30.2215" y="45.031" width="1.50898" height="6.96774" fill="#191927"/>
<path d="M52 67.824C52.672 67.824 53.2587 67.9413 53.76 68.176C54.2507 68.4213 54.6347 68.752 54.912 69.168C55.1787 69.584 55.312 70.048 55.312 70.56C55.312 70.9867 55.232 71.3707 55.072 71.712C54.912 72.0533 54.6933 72.3573 54.416 72.624C54.128 72.9013 53.8027 73.1307 53.44 73.312C53.7067 73.4827 53.9467 73.6853 54.16 73.92C54.3733 74.1547 54.5387 74.4107 54.656 74.688C54.7733 74.976 54.832 75.2693 54.832 75.568C54.832 76.048 54.7147 76.48 54.48 76.864C54.2453 77.248 53.9093 77.552 53.472 77.776C53.0347 78.0107 52.512 78.128 51.904 78.128C51.2853 78.128 50.7627 78.016 50.336 77.792C49.8987 77.5787 49.568 77.2853 49.344 76.912C49.12 76.5387 49.008 76.1227 49.008 75.664C49.008 75.3973 49.04 75.1467 49.104 74.912C49.168 74.6773 49.2587 74.4587 49.376 74.256C49.4933 74.064 49.6373 73.8827 49.808 73.712C49.968 73.5413 50.1547 73.392 50.368 73.264C50.1013 73.1253 49.8613 72.96 49.648 72.768C49.4347 72.576 49.2587 72.368 49.12 72.144C48.9707 71.92 48.8587 71.68 48.784 71.424C48.7093 71.168 48.672 70.896 48.672 70.608C48.672 70.0747 48.8107 69.5947 49.088 69.168C49.3653 68.752 49.7547 68.4213 50.256 68.176C50.7467 67.9413 51.328 67.824 52 67.824ZM51.968 69.312C51.6373 69.312 51.36 69.3707 51.136 69.488C50.912 69.616 50.7413 69.7867 50.624 70C50.5067 70.2133 50.448 70.4533 50.448 70.72C50.448 70.9333 50.4907 71.136 50.576 71.328C50.6613 71.52 50.7893 71.696 50.96 71.856C51.12 72.016 51.312 72.16 51.536 72.288C51.76 72.4267 52.0107 72.5387 52.288 72.624C52.4693 72.528 52.64 72.4107 52.8 72.272C52.9493 72.144 53.0773 72 53.184 71.84C53.2907 71.6907 53.376 71.5253 53.44 71.344C53.4933 71.1733 53.52 70.9813 53.52 70.768C53.52 70.4907 53.4613 70.24 53.344 70.016C53.216 69.8027 53.0347 69.632 52.8 69.504C52.5653 69.376 52.288 69.312 51.968 69.312ZM51.664 73.808C51.5147 73.9147 51.3813 74.032 51.264 74.16C51.1467 74.2987 51.0507 74.4427 50.976 74.592C50.8907 74.7413 50.8267 74.896 50.784 75.056C50.7413 75.216 50.72 75.376 50.72 75.536C50.72 75.7493 50.7733 75.936 50.88 76.096C50.976 76.2667 51.1147 76.4 51.296 76.496C51.4773 76.6027 51.696 76.656 51.952 76.656C52.208 76.656 52.4213 76.608 52.592 76.512C52.7627 76.416 52.896 76.2827 52.992 76.112C53.088 75.952 53.136 75.7707 53.136 75.568C53.136 75.3653 53.0987 75.1787 53.024 75.008C52.9493 74.848 52.848 74.6987 52.72 74.56C52.5813 74.4213 52.4213 74.288 52.24 74.16C52.0587 74.0427 51.8667 73.9253 51.664 73.808Z" fill="#191927"/>
<ellipse cx="52.0059" cy="62.5415" rx="1.47824" ry="1.45853" transform="rotate(-180 52.0059 62.5415)" fill="#191927"/>
<circle cx="50.7977" cy="60.7341" r="1.46437" transform="rotate(-180 50.7977 60.7341)" fill="#191927"/>
<circle cx="53.2023" cy="60.7341" r="1.46437" transform="rotate(-180 53.2023 60.7341)" fill="#191927"/>
<rect x="52.2595" y="60.3235" width="0.502994" height="2.32258" transform="rotate(-180 52.2595 60.3235)" fill="#191927"/>
</svg>
