<svg width="62" height="86" viewBox="0 0 62 86" fill="none" xmlns="http://www.w3.org/2000/svg">
<rect width="62" height="86" rx="4" fill="#FAFAFB"/>
<path opacity="0.9" d="M9.584 18.176C9.08267 18.176 8.59733 18.112 8.128 17.984C7.65867 17.8453 7.232 17.6107 6.848 17.28L7.776 15.952L7.856 15.824L7.984 15.904C8.00533 15.9893 8.03733 16.0693 8.08 16.144C8.13333 16.208 8.224 16.2987 8.352 16.416C8.53333 16.512 8.71467 16.5867 8.896 16.64C9.088 16.6827 9.296 16.704 9.52 16.704C9.82933 16.704 10.1013 16.6187 10.336 16.448C10.5813 16.2773 10.7893 16.0267 10.96 15.696C11.1307 15.3653 11.264 14.9813 11.36 14.544C11.456 14.1067 11.504 13.6213 11.504 13.088C11.5253 12.1707 11.4773 11.44 11.36 10.896C11.2427 10.3413 11.0667 9.94133 10.832 9.696C10.608 9.45067 10.3093 9.328 9.936 9.328C9.712 9.328 9.504 9.376 9.312 9.472C9.13067 9.55733 8.97067 9.69067 8.832 9.872C8.704 10.0427 8.60267 10.2507 8.528 10.496C8.464 10.7413 8.432 11.0187 8.432 11.328C8.432 11.6053 8.46933 11.8507 8.544 12.064C8.62933 12.2667 8.74133 12.4427 8.88 12.592C9.01867 12.7307 9.17867 12.8373 9.36 12.912C9.54133 12.9867 9.73333 13.024 9.936 13.024C10.2133 13.024 10.464 12.992 10.688 12.928C10.912 12.864 11.1147 12.7573 11.296 12.608C11.488 12.448 11.6587 12.2347 11.808 11.968L11.984 13.52C11.824 13.7013 11.632 13.8667 11.408 14.016C11.184 14.1547 10.9333 14.2613 10.656 14.336C10.3893 14.4107 10.1013 14.448 9.792 14.448C9.36533 14.448 8.96533 14.3787 8.592 14.24C8.21867 14.0907 7.89333 13.8773 7.616 13.6C7.33867 13.312 7.12 12.976 6.96 12.592C6.81067 12.1973 6.736 11.76 6.736 11.28C6.736 10.7893 6.82133 10.3413 6.992 9.936C7.16267 9.52 7.392 9.16267 7.68 8.864C7.97867 8.55467 8.32533 8.31467 8.72 8.144C9.12533 7.97333 9.552 7.888 10 7.888C10.704 7.888 11.2907 8.06933 11.76 8.432C12.2293 8.784 12.5813 9.30667 12.816 10C13.0613 10.6827 13.184 11.52 13.184 12.512C13.184 13.7387 13.04 14.7733 12.752 15.616C12.4747 16.448 12.0693 17.0827 11.536 17.52C11.0027 17.9467 10.352 18.1653 9.584 18.176Z" fill="#191927"/>
<path d="M10 22L12.6667 25L10 28L7.33333 25L10 22Z" fill="#D93B55"/>
<path d="M31 34L39 43L31 52L23 43L31 34Z" fill="#D93B55"/>
<path opacity="0.9" d="M52.416 67.824C52.9173 67.824 53.4027 67.888 53.872 68.016C54.3413 68.1547 54.768 68.3893 55.152 68.72L54.224 70.048L54.144 70.176L54.016 70.096C53.9947 70.0107 53.9627 69.9307 53.92 69.856C53.8667 69.792 53.776 69.7013 53.648 69.584C53.4667 69.488 53.2853 69.4133 53.104 69.36C52.912 69.3173 52.704 69.296 52.48 69.296C52.1707 69.296 51.8987 69.3813 51.664 69.552C51.4187 69.7227 51.2107 69.9733 51.04 70.304C50.8693 70.6347 50.736 71.0187 50.64 71.456C50.544 71.8933 50.496 72.3787 50.496 72.912C50.4747 73.8293 50.5227 74.56 50.64 75.104C50.7573 75.6587 50.9333 76.0587 51.168 76.304C51.392 76.5493 51.6907 76.672 52.064 76.672C52.288 76.672 52.496 76.624 52.688 76.528C52.8693 76.4427 53.0293 76.3093 53.168 76.128C53.296 75.9573 53.3973 75.7493 53.472 75.504C53.536 75.2587 53.568 74.9813 53.568 74.672C53.568 74.3947 53.5307 74.1493 53.456 73.936C53.3707 73.7333 53.2587 73.5573 53.12 73.408C52.9813 73.2693 52.8213 73.1627 52.64 73.088C52.4587 73.0133 52.2667 72.976 52.064 72.976C51.7867 72.976 51.536 73.008 51.312 73.072C51.088 73.136 50.8853 73.2427 50.704 73.392C50.512 73.552 50.3413 73.7653 50.192 74.032L50.016 72.48C50.176 72.2987 50.368 72.1333 50.592 71.984C50.816 71.8453 51.0667 71.7387 51.344 71.664C51.6107 71.5893 51.8987 71.552 52.208 71.552C52.6347 71.552 53.0347 71.6213 53.408 71.76C53.7813 71.9093 54.1067 72.1227 54.384 72.4C54.6613 72.688 54.88 73.024 55.04 73.408C55.1893 73.8027 55.264 74.24 55.264 74.72C55.264 75.2107 55.1787 75.6587 55.008 76.064C54.8373 76.48 54.608 76.8373 54.32 77.136C54.0213 77.4453 53.6747 77.6853 53.28 77.856C52.8747 78.0267 52.448 78.112 52 78.112C51.296 78.112 50.7093 77.9307 50.24 77.568C49.7707 77.216 49.4187 76.6933 49.184 76C48.9387 75.3173 48.816 74.48 48.816 73.488C48.816 72.2613 48.96 71.2267 49.248 70.384C49.5253 69.552 49.9307 68.9173 50.464 68.48C50.9973 68.0533 51.648 67.8347 52.416 67.824Z" fill="#191927"/>
<path d="M52 64L49.3334 61L52 58L54.6667 61L52 64Z" fill="#D93B55"/>
</svg>
