<svg width="62" height="86" viewBox="0 0 62 86" fill="none" xmlns="http://www.w3.org/2000/svg">
<rect width="62" height="86" rx="4" fill="#FAFAFB"/>
<path d="M11.872 15.68H7.968L8.224 14.384H11.568L11.872 15.68ZM10 11.312L7.984 18H6.192L9.568 7.968H10.432L13.808 18H11.984L10 11.312Z" fill="#191927"/>
<path d="M9.99998 22L12.6666 25L9.99998 28L7.33331 25L9.99998 22Z" fill="#D93B55"/>
<path d="M31 34L39 43L31 52L23 43L31 34Z" fill="#D93B55"/>
<path d="M50.128 70.32H54.032L53.776 71.616H50.432L50.128 70.32ZM52 74.688L54.016 68H55.808L52.432 78.032H51.568L48.192 68H50.016L52 74.688Z" fill="#191927"/>
<path d="M52 64L49.3333 61L52 58L54.6666 61L52 64Z" fill="#D93B55"/>
</svg>
