<svg width="62" height="86" viewBox="0 0 62 86" fill="none" xmlns="http://www.w3.org/2000/svg">
<rect width="62" height="86" rx="4" fill="#FAFAFB"/>
<path d="M11.872 15.68H7.968L8.224 14.384H11.568L11.872 15.68ZM10 11.312L7.984 18H6.192L9.568 7.968H10.432L13.808 18H11.984L10 11.312Z" fill="#191927"/>
<path fill-rule="evenodd" clip-rule="evenodd" d="M12.2586 26.1597C11.7001 26.7335 10.7776 26.7503 10.1982 26.1973L9.99996 26.0081L9.80174 26.1973C9.2223 26.7503 8.29981 26.7335 7.74131 26.1597C7.18281 25.586 7.19979 24.6725 7.77923 24.1195L9.99996 22L12.2207 24.1195C12.8001 24.6725 12.8171 25.586 12.2586 26.1597Z" fill="#191927"/>
<rect x="9.74451" y="25.6765" width="0.502994" height="2.32335" fill="#191927"/>
<path fill-rule="evenodd" clip-rule="evenodd" d="M37.7759 46.4792C36.1004 48.2005 33.333 48.251 31.5946 46.5919L31 46.0244L30.4054 46.5919C28.667 48.251 25.8996 48.2005 24.224 46.4792C22.5485 44.7579 22.5995 42.0176 24.3378 40.3585L31 34L37.6622 40.3585C39.4005 42.0176 39.4515 44.7579 37.7759 46.4792Z" fill="#191927"/>
<rect x="30.2335" y="45.0298" width="1.50898" height="6.97006" fill="#191927"/>
<path d="M50.128 70.32H54.032L53.776 71.616H50.432L50.128 70.32ZM52 74.688L54.016 68H55.808L52.432 78.032H51.568L48.192 68H50.016L52 74.688Z" fill="#191927"/>
<path fill-rule="evenodd" clip-rule="evenodd" d="M49.7413 59.8403C50.2998 59.2665 51.2223 59.2497 51.8018 59.8027L52 59.9919L52.1982 59.8027C52.7776 59.2497 53.7001 59.2665 54.2586 59.8403C54.8171 60.414 54.8002 61.3275 54.2207 61.8805L52 64L49.7793 61.8805C49.1998 61.3275 49.1828 60.414 49.7413 59.8403Z" fill="#191927"/>
<rect x="52.2554" y="60.3235" width="0.502994" height="2.32335" transform="rotate(-180 52.2554 60.3235)" fill="#191927"/>
</svg>
