<svg width="62" height="86" viewBox="0 0 62 86" fill="none" xmlns="http://www.w3.org/2000/svg">
<rect width="62" height="86" rx="4" fill="#FAFAFB"/>
<path d="M9.104 18.24C8.592 18.24 8.10667 18.1493 7.648 17.968C7.18933 17.7867 6.80533 17.5093 6.496 17.136L7.392 15.712L7.472 15.584L7.6 15.664C7.62133 15.7493 7.648 15.8347 7.68 15.92C7.712 16.0053 7.792 16.112 7.92 16.24C8.06933 16.3467 8.22933 16.432 8.4 16.496C8.57067 16.5493 8.752 16.576 8.944 16.576C9.22133 16.576 9.45067 16.5013 9.632 16.352C9.824 16.192 9.968 15.9573 10.064 15.648C10.16 15.328 10.208 14.9333 10.208 14.464V9.488H8.368V8.032H13.472V9.488H12V14.592C12.0107 15.2213 11.936 15.7653 11.776 16.224C11.616 16.672 11.3973 17.0453 11.12 17.344C10.8427 17.6427 10.528 17.8667 10.176 18.016C9.824 18.1653 9.46667 18.24 9.104 18.24Z" fill="#191927"/>
<path fill-rule="evenodd" clip-rule="evenodd" d="M12.2587 26.1597C11.7002 26.7335 10.7777 26.7503 10.1982 26.1973L10 26.0081L9.80179 26.1973C9.22234 26.7503 8.29986 26.7335 7.74135 26.1597C7.18285 25.586 7.19983 24.6725 7.77928 24.1195L10 22L12.2207 24.1195C12.8002 24.6725 12.8172 25.586 12.2587 26.1597Z" fill="#191927"/>
<rect x="9.74452" y="25.6765" width="0.502994" height="2.32335" fill="#191927"/>
<path fill-rule="evenodd" clip-rule="evenodd" d="M37.776 46.4792C36.1005 48.2005 33.333 48.251 31.5947 46.5919L31 46.0244L30.4054 46.5919C28.667 48.251 25.8996 48.2005 24.2241 46.4792C22.5486 44.7579 22.5995 42.0176 24.3378 40.3585L31 34L37.6622 40.3585C39.4005 42.0176 39.4515 44.7579 37.776 46.4792Z" fill="#191927"/>
<rect x="30.2336" y="45.0298" width="1.50898" height="6.97006" fill="#191927"/>
<path d="M52.896 67.76C53.408 67.76 53.8933 67.8507 54.352 68.032C54.8107 68.2133 55.1947 68.4907 55.504 68.864L54.608 70.288L54.528 70.416L54.4 70.336C54.3787 70.2507 54.352 70.1653 54.32 70.08C54.288 69.9947 54.208 69.888 54.08 69.76C53.9307 69.6533 53.7707 69.568 53.6 69.504C53.4293 69.4507 53.248 69.424 53.056 69.424C52.7787 69.424 52.5493 69.4987 52.368 69.648C52.176 69.808 52.032 70.0427 51.936 70.352C51.84 70.672 51.792 71.0667 51.792 71.536V76.512H53.632V77.968H48.528V76.512H50V71.408C49.9893 70.7787 50.064 70.2347 50.224 69.776C50.384 69.328 50.6027 68.9547 50.88 68.656C51.1573 68.3573 51.472 68.1333 51.824 67.984C52.176 67.8347 52.5333 67.76 52.896 67.76Z" fill="#191927"/>
<path fill-rule="evenodd" clip-rule="evenodd" d="M49.7414 59.8403C50.2999 59.2665 51.2223 59.2497 51.8018 59.8027L52 59.9919L52.1982 59.8027C52.7777 59.2497 53.7002 59.2665 54.2587 59.8403C54.8172 60.414 54.8002 61.3275 54.2207 61.8805L52 64L49.7793 61.8805C49.1998 61.3275 49.1829 60.414 49.7414 59.8403Z" fill="#191927"/>
<rect x="52.2555" y="60.3235" width="0.502994" height="2.32335" transform="rotate(-180 52.2555 60.3235)" fill="#191927"/>
</svg>
