<svg width="62" height="86" viewBox="0 0 62 86" fill="none" xmlns="http://www.w3.org/2000/svg">
<rect width="62" height="86" rx="4" fill="#FAFAFB"/>
<path d="M9.024 13.488L8.368 14.352V18H6.592V8.032H8.352H8.496V8.176C8.44267 8.24 8.40533 8.30933 8.384 8.384C8.37333 8.45867 8.368 8.58667 8.368 8.768V12.112L11.68 7.936C11.7653 7.95733 11.856 7.97333 11.952 7.984C12.0587 7.99467 12.1653 8.00533 12.272 8.016C12.3893 8.02667 12.496 8.032 12.592 8.032C12.6987 8.032 12.784 8.032 12.848 8.032H13.68L10.304 12.208L13.872 17.984L11.808 18.064L9.024 13.488Z" fill="#191927"/>
<ellipse cx="9.99416" cy="23.4585" rx="1.47824" ry="1.45853" fill="#191927"/>
<circle cx="11.2023" cy="25.2659" r="1.46437" fill="#191927"/>
<circle cx="8.79773" cy="25.2659" r="1.46437" fill="#191927"/>
<rect x="9.74051" y="25.6765" width="0.502994" height="2.32258" fill="#191927"/>
<ellipse cx="30.9825" cy="38.3768" rx="4.43471" ry="4.37558" fill="#191927"/>
<circle cx="34.6069" cy="43.7991" r="4.3931" fill="#191927"/>
<circle cx="27.3931" cy="43.7991" r="4.3931" fill="#191927"/>
<rect x="30.2215" y="45.031" width="1.50898" height="6.96774" fill="#191927"/>
<path d="M52.976 72.512L53.632 71.648V68H55.408V77.968H53.648H53.504V77.824C53.5573 77.76 53.5947 77.6907 53.616 77.616C53.6267 77.5413 53.632 77.4133 53.632 77.232V73.888L50.32 78.064C50.2347 78.0427 50.144 78.0267 50.048 78.016C49.9413 78.0053 49.8347 77.9947 49.728 77.984C49.6107 77.9733 49.504 77.968 49.408 77.968C49.3013 77.968 49.216 77.968 49.152 77.968H48.32L51.696 73.792L48.128 68.016L50.192 67.936L52.976 72.512Z" fill="#191927"/>
<ellipse cx="52.0058" cy="62.5415" rx="1.47824" ry="1.45853" transform="rotate(-180 52.0058 62.5415)" fill="#191927"/>
<circle cx="50.7977" cy="60.7341" r="1.46437" transform="rotate(-180 50.7977 60.7341)" fill="#191927"/>
<circle cx="53.2023" cy="60.7341" r="1.46437" transform="rotate(-180 53.2023 60.7341)" fill="#191927"/>
<rect x="52.2595" y="60.3235" width="0.502994" height="2.32258" transform="rotate(-180 52.2595 60.3235)" fill="#191927"/>
</svg>
