<svg width="62" height="86" viewBox="0 0 62 86" fill="none" xmlns="http://www.w3.org/2000/svg">
<rect width="62" height="86" rx="4" fill="#FAFAFB"/>
<path d="M9.024 13.488L8.368 14.352V18H6.592V8.032H8.352H8.496V8.176C8.44267 8.24 8.40533 8.30933 8.384 8.384C8.37333 8.45867 8.368 8.58667 8.368 8.768V12.112L11.68 7.936C11.7653 7.95733 11.856 7.97333 11.952 7.984C12.0587 7.99467 12.1653 8.00533 12.272 8.016C12.3893 8.02667 12.496 8.032 12.592 8.032C12.6987 8.032 12.784 8.032 12.848 8.032H13.68L10.304 12.208L13.872 17.984L11.808 18.064L9.024 13.488Z" fill="#191927"/>
<path fill-rule="evenodd" clip-rule="evenodd" d="M7.74135 23.1146C8.29985 22.5327 9.22234 22.5156 9.80179 23.0765L10 23.2684L10.1982 23.0765C10.7777 22.5156 11.7002 22.5327 12.2587 23.1146C12.8172 23.6965 12.8002 24.6229 12.2207 25.1838L10 27.3334L7.77928 25.1838C7.19983 24.6229 7.18285 23.6965 7.74135 23.1146Z" fill="#D93B55"/>
<path fill-rule="evenodd" clip-rule="evenodd" d="M24.2241 37.3435C25.8996 35.5978 28.667 35.5466 30.4054 37.2293L31 37.8049L31.5946 37.2293C33.333 35.5466 36.1004 35.5978 37.776 37.3435C39.4515 39.0893 39.4005 41.8686 37.6622 43.5512L31 50L24.3378 43.5512C22.5995 41.8686 22.5485 39.0893 24.2241 37.3435Z" fill="#D93B55"/>
<path d="M52.976 72.512L53.632 71.648V68H55.408V77.968H53.648H53.504V77.824C53.5573 77.76 53.5947 77.6907 53.616 77.616C53.6267 77.5413 53.632 77.4133 53.632 77.232V73.888L50.32 78.064C50.2347 78.0427 50.144 78.0267 50.048 78.016C49.9413 78.0053 49.8347 77.9947 49.728 77.984C49.6107 77.9733 49.504 77.968 49.408 77.968C49.3013 77.968 49.216 77.968 49.152 77.968H48.32L51.696 73.792L48.128 68.016L50.192 67.936L52.976 72.512Z" fill="#191927"/>
<path fill-rule="evenodd" clip-rule="evenodd" d="M54.2586 62.8854C53.7001 63.4673 52.7777 63.4844 52.1982 62.9235L52 62.7316L51.8018 62.9235C51.2223 63.4844 50.2998 63.4673 49.7413 62.8854C49.1828 62.3035 49.1998 61.3771 49.7793 60.8162L52 58.6666L54.2207 60.8162C54.8002 61.3771 54.8171 62.3035 54.2586 62.8854Z" fill="#D93B55"/>
</svg>
