<svg width="62" height="86" viewBox="0 0 62 86" fill="none" xmlns="http://www.w3.org/2000/svg">
<rect width="62" height="86" rx="4" fill="#FAFAFB"/>
<path d="M9.024 13.488L8.368 14.352V18H6.592V8.032H8.352H8.496V8.176C8.44267 8.24 8.40533 8.30933 8.384 8.384C8.37333 8.45867 8.368 8.58667 8.368 8.768V12.112L11.68 7.936C11.7653 7.95733 11.856 7.97333 11.952 7.984C12.0587 7.99467 12.1653 8.00533 12.272 8.016C12.3893 8.02667 12.496 8.032 12.592 8.032C12.6987 8.032 12.784 8.032 12.848 8.032H13.68L10.304 12.208L13.872 17.984L11.808 18.064L9.024 13.488Z" fill="#191927"/>
<path fill-rule="evenodd" clip-rule="evenodd" d="M12.2587 26.1597C11.7002 26.7335 10.7777 26.7503 10.1982 26.1973L10 26.0081L9.80179 26.1973C9.22234 26.7503 8.29986 26.7335 7.74135 26.1597C7.18285 25.586 7.19983 24.6725 7.77928 24.1195L10 22L12.2207 24.1195C12.8002 24.6725 12.8172 25.586 12.2587 26.1597Z" fill="#191927"/>
<rect x="9.74452" y="25.6765" width="0.502994" height="2.32335" fill="#191927"/>
<path fill-rule="evenodd" clip-rule="evenodd" d="M37.776 46.4792C36.1005 48.2005 33.333 48.251 31.5947 46.5919L31 46.0244L30.4054 46.5919C28.667 48.251 25.8996 48.2005 24.2241 46.4792C22.5486 44.7579 22.5995 42.0176 24.3378 40.3585L31 34L37.6622 40.3585C39.4005 42.0176 39.4515 44.7579 37.776 46.4792Z" fill="#191927"/>
<rect x="30.2336" y="45.0298" width="1.50898" height="6.97006" fill="#191927"/>
<path d="M52.976 72.512L53.632 71.648V68H55.408V77.968H53.648H53.504V77.824C53.5573 77.76 53.5947 77.6907 53.616 77.616C53.6267 77.5413 53.632 77.4133 53.632 77.232V73.888L50.32 78.064C50.2347 78.0427 50.144 78.0267 50.048 78.016C49.9413 78.0053 49.8347 77.9947 49.728 77.984C49.6107 77.9733 49.504 77.968 49.408 77.968C49.3013 77.968 49.216 77.968 49.152 77.968H48.32L51.696 73.792L48.128 68.016L50.192 67.936L52.976 72.512Z" fill="#191927"/>
<path fill-rule="evenodd" clip-rule="evenodd" d="M49.7413 59.8403C50.2998 59.2665 51.2223 59.2497 51.8018 59.8027L52 59.9919L52.1982 59.8027C52.7777 59.2497 53.7001 59.2665 54.2586 59.8403C54.8171 60.414 54.8002 61.3275 54.2207 61.8805L52 64L49.7793 61.8805C49.1998 61.3275 49.1828 60.414 49.7413 59.8403Z" fill="#191927"/>
<rect x="52.2555" y="60.3235" width="0.502994" height="2.32335" transform="rotate(-180 52.2555 60.3235)" fill="#191927"/>
</svg>
