<svg width="62" height="86" viewBox="0 0 62 86" fill="none" xmlns="http://www.w3.org/2000/svg">
<rect width="62" height="86" rx="4" fill="#FAFAFB"/>
<path d="M12.048 20.336C11.5467 20.336 11.12 20.2987 10.768 20.224C10.416 20.16 10.1227 20.0427 9.888 19.872C9.664 19.7013 9.49867 19.472 9.392 19.184C9.28533 18.896 9.22667 18.528 9.216 18.08C8.64 17.952 8.13333 17.6747 7.696 17.248C7.26933 16.8213 6.93333 16.2507 6.688 15.536C6.44267 14.8213 6.32 13.984 6.32 13.024C6.32 12.096 6.416 11.3067 6.608 10.656C6.81067 9.99467 7.08267 9.46133 7.424 9.056C7.776 8.65067 8.17067 8.352 8.608 8.16C9.056 7.968 9.53067 7.872 10.032 7.872C10.5547 7.872 11.04 7.97333 11.488 8.176C11.9467 8.37867 12.3413 8.688 12.672 9.104C13.0133 9.52 13.2747 10.0533 13.456 10.704C13.6373 11.3547 13.7227 12.1227 13.712 13.008C13.712 13.7973 13.648 14.4853 13.52 15.072C13.392 15.6587 13.2053 16.16 12.96 16.576C12.7147 16.9813 12.416 17.3067 12.064 17.552C11.7227 17.7973 11.3387 17.9733 10.912 18.08C10.9333 18.24 10.9707 18.384 11.024 18.512C11.0773 18.64 11.168 18.736 11.296 18.8C11.424 18.864 11.5893 18.896 11.792 18.896L13.104 18.832L13.072 20.336H12.048ZM10.064 16.688C10.3093 16.688 10.544 16.624 10.768 16.496C11.0027 16.3573 11.2053 16.1493 11.376 15.872C11.5573 15.584 11.7013 15.216 11.808 14.768C11.9147 14.3093 11.968 13.76 11.968 13.12C11.968 12.416 11.9147 11.824 11.808 11.344C11.7013 10.8533 11.552 10.464 11.36 10.176C11.1787 9.87733 10.976 9.664 10.752 9.536C10.528 9.408 10.288 9.344 10.032 9.344C9.72267 9.344 9.45067 9.424 9.216 9.584C8.98133 9.744 8.77867 9.984 8.608 10.304C8.43733 10.6133 8.30933 10.9813 8.224 11.408C8.13867 11.8347 8.096 12.32 8.096 12.864C8.096 13.696 8.176 14.3947 8.336 14.96C8.496 15.5253 8.72533 15.9573 9.024 16.256C9.32267 16.544 9.66933 16.688 10.064 16.688Z" fill="#191927"/>
<path d="M10 22L12.6667 25L10 28L7.33333 25L10 22Z" fill="#D93B55"/>
<path d="M31 34L39 43L31 52L23 43L31 34Z" fill="#D93B55"/>
<path d="M49.952 65.664C50.4533 65.664 50.88 65.7013 51.232 65.776C51.584 65.84 51.8773 65.9573 52.112 66.128C52.336 66.2987 52.5013 66.528 52.608 66.816C52.7147 67.104 52.7733 67.472 52.784 67.92C53.36 68.048 53.8667 68.3253 54.304 68.752C54.7307 69.1787 55.0667 69.7493 55.312 70.464C55.5573 71.1787 55.68 72.016 55.68 72.976C55.68 73.904 55.584 74.6933 55.392 75.344C55.1893 76.0053 54.9173 76.5387 54.576 76.944C54.224 77.3493 53.8293 77.648 53.392 77.84C52.944 78.032 52.4693 78.128 51.968 78.128C51.4453 78.128 50.96 78.0267 50.512 77.824C50.0533 77.6213 49.6587 77.312 49.328 76.896C48.9867 76.48 48.7253 75.9467 48.544 75.296C48.3627 74.6453 48.2773 73.8773 48.288 72.992C48.288 72.2027 48.352 71.5147 48.48 70.928C48.608 70.3413 48.7947 69.84 49.04 69.424C49.2853 69.0187 49.584 68.6933 49.936 68.448C50.2773 68.2027 50.6613 68.0267 51.088 67.92C51.0667 67.76 51.0293 67.616 50.976 67.488C50.9227 67.36 50.832 67.264 50.704 67.2C50.576 67.136 50.4107 67.104 50.208 67.104L48.896 67.168L48.928 65.664H49.952ZM51.936 69.312C51.6907 69.312 51.456 69.376 51.232 69.504C50.9973 69.6427 50.7947 69.8507 50.624 70.128C50.4427 70.416 50.2987 70.784 50.192 71.232C50.0853 71.6907 50.032 72.24 50.032 72.88C50.032 73.584 50.0853 74.176 50.192 74.656C50.2987 75.1467 50.448 75.536 50.64 75.824C50.8213 76.1227 51.024 76.336 51.248 76.464C51.472 76.592 51.712 76.656 51.968 76.656C52.2773 76.656 52.5493 76.576 52.784 76.416C53.0187 76.256 53.2213 76.016 53.392 75.696C53.5627 75.3867 53.6907 75.0187 53.776 74.592C53.8613 74.1653 53.904 73.68 53.904 73.136C53.904 72.304 53.824 71.6053 53.664 71.04C53.504 70.4747 53.2747 70.0427 52.976 69.744C52.6773 69.456 52.3307 69.312 51.936 69.312Z" fill="#191927"/>
<path d="M52 64L49.3333 61L52 58L54.6667 61L52 64Z" fill="#D93B55"/>
</svg>
