<svg width="62" height="86" viewBox="0 0 62 86" fill="none" xmlns="http://www.w3.org/2000/svg">
<rect width="62" height="86" rx="4" fill="#FAFAFB"/>
<path d="M5.828 18V10L4.02 10.64L3.636 9.44L6.292 8.032H7.636V18H5.828ZM10.596 15.024L14.868 9.984L15.188 11.184L10.916 16.192L10.596 15.024ZM12.9 18.192C12.196 18.192 11.588 17.9947 11.076 17.6C10.5747 17.2053 10.1853 16.6293 9.908 15.872C9.63067 15.104 9.492 14.1707 9.492 13.072C9.492 11.9947 9.63067 11.072 9.908 10.304C10.1853 9.52533 10.5747 8.928 11.076 8.512C11.588 8.096 12.196 7.888 12.9 7.888C13.604 7.888 14.2067 8.096 14.708 8.512C15.22 8.928 15.6147 9.52533 15.892 10.304C16.1693 11.072 16.308 11.9947 16.308 13.072C16.308 14.1707 16.1693 15.104 15.892 15.872C15.6147 16.6293 15.22 17.2053 14.708 17.6C14.2067 17.9947 13.604 18.192 12.9 18.192ZM12.9 16.8C13.284 16.8 13.604 16.656 13.86 16.368C14.116 16.08 14.308 15.6587 14.436 15.104C14.564 14.5493 14.628 13.872 14.628 13.072C14.628 12.2827 14.564 11.616 14.436 11.072C14.308 10.5173 14.116 10.0907 13.86 9.792C13.604 9.49333 13.284 9.344 12.9 9.344C12.516 9.344 12.196 9.49333 11.94 9.792C11.684 10.0907 11.492 10.5173 11.364 11.072C11.236 11.616 11.172 12.2827 11.172 13.072C11.172 13.872 11.236 14.5493 11.364 15.104C11.492 15.6587 11.684 16.08 11.94 16.368C12.196 16.656 12.516 16.8 12.9 16.8Z" fill="#191927"/>
<path fill-rule="evenodd" clip-rule="evenodd" d="M7.74135 23.1146C8.29985 22.5327 9.22233 22.5156 9.80178 23.0765L9.99999 23.2684L10.1982 23.0765C10.7777 22.5156 11.7001 22.5327 12.2586 23.1146C12.8171 23.6965 12.8002 24.6229 12.2207 25.1838L9.99999 27.3334L7.77927 25.1838C7.19982 24.6229 7.18284 23.6965 7.74135 23.1146Z" fill="#D93B55"/>
<path fill-rule="evenodd" clip-rule="evenodd" d="M24.2241 37.3435C25.8996 35.5978 28.667 35.5466 30.4054 37.2293L31 37.8049L31.5946 37.2293C33.333 35.5466 36.1004 35.5978 37.776 37.3435C39.4515 39.0893 39.4005 41.8686 37.6622 43.5512L31 50L24.3378 43.5512C22.5995 41.8686 22.5485 39.0893 24.2241 37.3435Z" fill="#D93B55"/>
<path d="M56.172 68V76L57.98 75.36L58.364 76.56L55.708 77.968H54.364V68H56.172ZM51.404 70.976L47.132 76.016L46.812 74.816L51.084 69.808L51.404 70.976ZM49.1 67.808C49.804 67.808 50.412 68.0053 50.924 68.4C51.4253 68.7947 51.8147 69.3707 52.092 70.128C52.3693 70.896 52.508 71.8293 52.508 72.928C52.508 74.0053 52.3693 74.928 52.092 75.696C51.8147 76.4747 51.4253 77.072 50.924 77.488C50.412 77.904 49.804 78.112 49.1 78.112C48.396 78.112 47.7933 77.904 47.292 77.488C46.78 77.072 46.3853 76.4747 46.108 75.696C45.8307 74.928 45.692 74.0053 45.692 72.928C45.692 71.8293 45.8307 70.896 46.108 70.128C46.3853 69.3707 46.78 68.7947 47.292 68.4C47.7933 68.0053 48.396 67.808 49.1 67.808ZM49.1 69.2C48.716 69.2 48.396 69.344 48.14 69.632C47.884 69.92 47.692 70.3413 47.564 70.896C47.436 71.4507 47.372 72.128 47.372 72.928C47.372 73.7173 47.436 74.384 47.564 74.928C47.692 75.4827 47.884 75.9093 48.14 76.208C48.396 76.5067 48.716 76.656 49.1 76.656C49.484 76.656 49.804 76.5067 50.06 76.208C50.316 75.9093 50.508 75.4827 50.636 74.928C50.764 74.384 50.828 73.7173 50.828 72.928C50.828 72.128 50.764 71.4507 50.636 70.896C50.508 70.3413 50.316 69.92 50.06 69.632C49.804 69.344 49.484 69.2 49.1 69.2Z" fill="#191927"/>
<path fill-rule="evenodd" clip-rule="evenodd" d="M54.541 63.5032C53.9127 64.1487 52.8749 64.1676 52.223 63.5455L52 63.3327L51.777 63.5455C51.1251 64.1676 50.0873 64.1487 49.459 63.5032C48.8307 62.8577 48.8498 61.8301 49.5017 61.208L52 58.8235L54.4983 61.208C55.1502 61.8301 55.1693 62.8577 54.541 63.5032Z" fill="#D93B55"/>
</svg>
