<svg width="62" height="86" viewBox="0 0 62 86" fill="none" xmlns="http://www.w3.org/2000/svg">
<rect width="62" height="86" rx="4" fill="#FAFAFB"/>
<path d="M5.828 18V10L4.02 10.64L3.636 9.44L6.292 8.032H7.636V18H5.828ZM10.596 15.024L14.868 9.984L15.188 11.184L10.916 16.192L10.596 15.024ZM12.9 18.192C12.196 18.192 11.588 17.9947 11.076 17.6C10.5747 17.2053 10.1853 16.6293 9.908 15.872C9.63067 15.104 9.492 14.1707 9.492 13.072C9.492 11.9947 9.63067 11.072 9.908 10.304C10.1853 9.52533 10.5747 8.928 11.076 8.512C11.588 8.096 12.196 7.888 12.9 7.888C13.604 7.888 14.2067 8.096 14.708 8.512C15.22 8.928 15.6147 9.52533 15.892 10.304C16.1693 11.072 16.308 11.9947 16.308 13.072C16.308 14.1707 16.1693 15.104 15.892 15.872C15.6147 16.6293 15.22 17.2053 14.708 17.6C14.2067 17.9947 13.604 18.192 12.9 18.192ZM12.9 16.8C13.284 16.8 13.604 16.656 13.86 16.368C14.116 16.08 14.308 15.6587 14.436 15.104C14.564 14.5493 14.628 13.872 14.628 13.072C14.628 12.2827 14.564 11.616 14.436 11.072C14.308 10.5173 14.116 10.0907 13.86 9.792C13.604 9.49333 13.284 9.344 12.9 9.344C12.516 9.344 12.196 9.49333 11.94 9.792C11.684 10.0907 11.492 10.5173 11.364 11.072C11.236 11.616 11.172 12.2827 11.172 13.072C11.172 13.872 11.236 14.5493 11.364 15.104C11.492 15.6587 11.684 16.08 11.94 16.368C12.196 16.656 12.516 16.8 12.9 16.8Z" fill="#191927"/>
<path fill-rule="evenodd" clip-rule="evenodd" d="M12.2587 26.1597C11.7002 26.7335 10.7777 26.7503 10.1982 26.1973L10 26.0081L9.80179 26.1973C9.22234 26.7503 8.29986 26.7335 7.74135 26.1597C7.18285 25.586 7.19983 24.6725 7.77928 24.1195L10 22L12.2207 24.1195C12.8002 24.6725 12.8172 25.586 12.2587 26.1597Z" fill="#191927"/>
<rect x="9.74451" y="25.6765" width="0.502994" height="2.32335" fill="#191927"/>
<path fill-rule="evenodd" clip-rule="evenodd" d="M37.776 46.4792C36.1005 48.2005 33.333 48.251 31.5947 46.5919L31 46.0244L30.4054 46.5919C28.667 48.251 25.8996 48.2005 24.2241 46.4792C22.5486 44.7579 22.5995 42.0176 24.3378 40.3585L31 34L37.6622 40.3585C39.4005 42.0176 39.4515 44.7579 37.776 46.4792Z" fill="#191927"/>
<rect x="30.2336" y="45.0298" width="1.50898" height="6.97006" fill="#191927"/>
<path d="M56.172 68V76L57.98 75.36L58.364 76.56L55.708 77.968H54.364V68H56.172ZM51.404 70.976L47.132 76.016L46.812 74.816L51.084 69.808L51.404 70.976ZM49.1 67.808C49.804 67.808 50.412 68.0053 50.924 68.4C51.4253 68.7947 51.8147 69.3707 52.092 70.128C52.3693 70.896 52.508 71.8293 52.508 72.928C52.508 74.0053 52.3693 74.928 52.092 75.696C51.8147 76.4747 51.4253 77.072 50.924 77.488C50.412 77.904 49.804 78.112 49.1 78.112C48.396 78.112 47.7933 77.904 47.292 77.488C46.78 77.072 46.3853 76.4747 46.108 75.696C45.8307 74.928 45.692 74.0053 45.692 72.928C45.692 71.8293 45.8307 70.896 46.108 70.128C46.3853 69.3707 46.78 68.7947 47.292 68.4C47.7933 68.0053 48.396 67.808 49.1 67.808ZM49.1 69.2C48.716 69.2 48.396 69.344 48.14 69.632C47.884 69.92 47.692 70.3413 47.564 70.896C47.436 71.4507 47.372 72.128 47.372 72.928C47.372 73.7173 47.436 74.384 47.564 74.928C47.692 75.4827 47.884 75.9093 48.14 76.208C48.396 76.5067 48.716 76.656 49.1 76.656C49.484 76.656 49.804 76.5067 50.06 76.208C50.316 75.9093 50.508 75.4827 50.636 74.928C50.764 74.384 50.828 73.7173 50.828 72.928C50.828 72.128 50.764 71.4507 50.636 70.896C50.508 70.3413 50.316 69.92 50.06 69.632C49.804 69.344 49.484 69.2 49.1 69.2Z" fill="#191927"/>
<path fill-rule="evenodd" clip-rule="evenodd" d="M49.7413 59.8403C50.2998 59.2665 51.2223 59.2497 51.8018 59.8027L52 59.9919L52.1982 59.8027C52.7776 59.2497 53.7001 59.2665 54.2586 59.8403C54.8171 60.414 54.8002 61.3275 54.2207 61.8805L52 64L49.7793 61.8805C49.1998 61.3275 49.1828 60.414 49.7413 59.8403Z" fill="#191927"/>
<rect x="52.2555" y="60.3235" width="0.502994" height="2.32335" transform="rotate(-180 52.2555 60.3235)" fill="#191927"/>
</svg>
