<svg width="62" height="86" viewBox="0 0 62 86" fill="none" xmlns="http://www.w3.org/2000/svg">
<rect width="62" height="86" rx="4" fill="#FAFAFB"/>
<path d="M11.04 21.24C10.1733 21.24 9.38667 21.0733 8.68 20.74C7.98667 20.4067 7.45333 19.9133 7.08 19.26L8.66 17.96L8.82 17.84L8.92 17.98C8.92 18.0867 8.94 18.1867 8.98 18.28C9.02 18.3733 9.10667 18.5067 9.24 18.68C9.48 18.92 9.74667 19.1 10.04 19.22C10.3333 19.34 10.66 19.4 11.02 19.4C11.3133 19.4 11.5867 19.3467 11.84 19.24C12.0933 19.12 12.3067 18.9533 12.48 18.74C12.6667 18.5267 12.8133 18.2733 12.92 17.98C13.0267 17.6867 13.08 17.3733 13.08 17.04C13.08 16.6667 13.0267 16.3333 12.92 16.04C12.8267 15.7333 12.6867 15.4733 12.5 15.26C12.3267 15.0333 12.1067 14.86 11.84 14.74C11.5867 14.62 11.2933 14.56 10.96 14.56C10.7067 14.56 10.4533 14.6 10.2 14.68C9.94667 14.7467 9.71333 14.8533 9.5 15C9.3 15.1333 9.11333 15.3133 8.94 15.54L7.56 15.18L8.02 8.54H14.68V10.36H9.9L9.72 13.18C9.88 13.1 10.06 13.0267 10.26 12.96C10.46 12.88 10.6667 12.8267 10.88 12.8C11.0933 12.76 11.2933 12.74 11.48 12.74C12.04 12.74 12.5467 12.8333 13 13.02C13.4533 13.1933 13.8467 13.46 14.18 13.82C14.5133 14.1667 14.7667 14.6 14.94 15.12C15.1267 15.64 15.22 16.2267 15.22 16.88C15.22 17.7733 15.0333 18.5467 14.66 19.2C14.3 19.8533 13.8067 20.36 13.18 20.72C12.5667 21.0667 11.8533 21.24 11.04 21.24Z" fill="#191927"/>
<path d="M31.0001 24.9504L47.0442 43L31.0001 61.0496L14.9561 43L31.0001 24.9504Z" fill="#D93B55"/>
<path d="M50.96 64.76C51.8267 64.76 52.6133 64.9267 53.32 65.26C54.0133 65.5933 54.5467 66.0867 54.92 66.74L53.34 68.04L53.18 68.16L53.08 68.02C53.08 67.9133 53.06 67.8133 53.02 67.72C52.98 67.6267 52.8933 67.4933 52.76 67.32C52.52 67.08 52.2533 66.9 51.96 66.78C51.6667 66.66 51.34 66.6 50.98 66.6C50.6867 66.6 50.4133 66.6533 50.16 66.76C49.9067 66.88 49.6933 67.0467 49.52 67.26C49.3333 67.4733 49.1867 67.7267 49.08 68.02C48.9733 68.3133 48.92 68.6267 48.92 68.96C48.92 69.3333 48.9733 69.6667 49.08 69.96C49.1733 70.2667 49.3133 70.5267 49.5 70.74C49.6733 70.9667 49.8933 71.14 50.16 71.26C50.4133 71.38 50.7067 71.44 51.04 71.44C51.2933 71.44 51.5467 71.4 51.8 71.32C52.0533 71.2533 52.2867 71.1467 52.5 71C52.7 70.8667 52.8867 70.6867 53.06 70.46L54.44 70.82L53.98 77.46H47.32V75.64H52.1L52.28 72.82C52.12 72.9 51.94 72.9733 51.74 73.04C51.54 73.12 51.3333 73.1733 51.12 73.2C50.9067 73.24 50.7067 73.26 50.52 73.26C49.96 73.26 49.4533 73.1667 49 72.98C48.5467 72.8067 48.1533 72.54 47.82 72.18C47.4867 71.8333 47.2333 71.4 47.06 70.88C46.8733 70.36 46.78 69.7733 46.78 69.12C46.78 68.2267 46.9667 67.4533 47.34 66.8C47.7 66.1467 48.1933 65.64 48.82 65.28C49.4333 64.9333 50.1467 64.76 50.96 64.76Z" fill="#191927"/>
</svg>
