<svg width="62" height="86" viewBox="0 0 62 86" fill="none" xmlns="http://www.w3.org/2000/svg">
<rect width="62" height="86" rx="4" fill="#FAFAFB"/>
<path d="M11.2 21.22C10.3067 21.22 9.54667 20.9733 8.92 20.48C8.29333 19.9867 7.82 19.3 7.5 18.42C7.18 17.5267 7.02 16.48 7.02 15.28C7.02 13.8133 7.22 12.5667 7.62 11.54C8.03333 10.5 8.58667 9.70667 9.28 9.16C9.98667 8.61333 10.7933 8.34 11.7 8.34C12.2467 8.34 12.8 8.44 13.36 8.64C13.9333 8.82667 14.4333 9.13333 14.86 9.56L13.62 10.94L13.5 11.1L13.34 10.98C13.3267 10.8733 13.2867 10.7867 13.22 10.72C13.1533 10.64 13.0333 10.54 12.86 10.42C12.7667 10.3667 12.6667 10.3267 12.56 10.3C12.4533 10.2733 12.3467 10.2533 12.24 10.24C12.1333 10.2267 12.02 10.22 11.9 10.22C11.7 10.22 11.4867 10.2467 11.26 10.3C11.0333 10.3533 10.8067 10.4533 10.58 10.6C10.3667 10.7467 10.16 10.96 9.96 11.24C9.77333 11.5067 9.61333 11.86 9.48 12.3C9.36 12.7267 9.28 13.26 9.24 13.9C9.41333 13.66 9.62667 13.46 9.88 13.3C10.1333 13.14 10.4 13.02 10.68 12.94C10.9733 12.8467 11.26 12.8 11.54 12.8C12.0333 12.8 12.4933 12.8867 12.92 13.06C13.36 13.2333 13.74 13.4933 14.06 13.84C14.38 14.1733 14.6267 14.5933 14.8 15.1C14.9867 15.6067 15.08 16.2 15.08 16.88C15.08 17.7067 14.9133 18.4467 14.58 19.1C14.2467 19.7533 13.7867 20.2733 13.2 20.66C12.6133 21.0333 11.9467 21.22 11.2 21.22ZM11.24 19.4C11.4933 19.4 11.7267 19.34 11.94 19.22C12.1533 19.1 12.34 18.9333 12.5 18.72C12.66 18.4933 12.78 18.2267 12.86 17.92C12.94 17.6133 12.98 17.2667 12.98 16.88C12.98 16.48 12.9333 16.14 12.84 15.86C12.7467 15.5667 12.6133 15.3267 12.44 15.14C12.2667 14.9533 12.0733 14.8133 11.86 14.72C11.6467 14.6267 11.4333 14.58 11.22 14.58C11.02 14.58 10.8267 14.6133 10.64 14.68C10.4667 14.7467 10.2933 14.84 10.12 14.96C9.96 15.08 9.80667 15.2267 9.66 15.4C9.52667 15.56 9.40667 15.74 9.3 15.94C9.27333 16.4467 9.3 16.9133 9.38 17.34C9.46 17.7533 9.58667 18.12 9.76 18.44C9.93333 18.7467 10.1467 18.9867 10.4 19.16C10.6533 19.32 10.9333 19.4 11.24 19.4Z" fill="#191927"/>
<ellipse cx="30.9652" cy="34.181" rx="8.89386" ry="8.77528" fill="#191927"/>
<circle cx="38.2342" cy="45.0553" r="8.81042" fill="#191927"/>
<circle cx="23.7665" cy="45.0553" r="8.81042" fill="#191927"/>
<rect x="29.416" y="46.1733" width="3.02628" height="13.9739" fill="#191927"/>
<path d="M37.7969 57.4231L37.7969 60.5946L25.1109 60.5946L25.1109 57.4231L37.7969 57.4231Z" fill="#191927"/>
<path d="M50.8 64.78C51.6933 64.78 52.4533 65.0267 53.08 65.52C53.7067 66.0133 54.18 66.7 54.5 67.58C54.82 68.4733 54.98 69.52 54.98 70.72C54.98 72.1867 54.78 73.4333 54.38 74.46C53.9667 75.5 53.4133 76.2933 52.72 76.84C52.0133 77.3867 51.2067 77.66 50.3 77.66C49.7533 77.66 49.2 77.56 48.64 77.36C48.0667 77.1733 47.5667 76.8667 47.14 76.44L48.38 75.06L48.5 74.9L48.66 75.02C48.6733 75.1267 48.7133 75.2133 48.78 75.28C48.8467 75.36 48.9667 75.46 49.14 75.58C49.2333 75.6333 49.3333 75.6733 49.44 75.7C49.5467 75.7267 49.6533 75.7467 49.76 75.76C49.8667 75.7733 49.98 75.78 50.1 75.78C50.3 75.78 50.5133 75.7533 50.74 75.7C50.9667 75.6467 51.1933 75.5467 51.42 75.4C51.6333 75.2533 51.84 75.04 52.04 74.76C52.2267 74.4933 52.3867 74.14 52.52 73.7C52.64 73.2733 52.72 72.74 52.76 72.1C52.5867 72.34 52.3733 72.54 52.12 72.7C51.8667 72.86 51.6 72.98 51.32 73.06C51.0267 73.1533 50.74 73.2 50.46 73.2C49.9667 73.2 49.5067 73.1133 49.08 72.94C48.64 72.7667 48.26 72.5067 47.94 72.16C47.62 71.8267 47.3733 71.4067 47.2 70.9C47.0133 70.3933 46.92 69.8 46.92 69.12C46.92 68.2933 47.0867 67.5533 47.42 66.9C47.7533 66.2467 48.2133 65.7267 48.8 65.34C49.3867 64.9667 50.0533 64.78 50.8 64.78ZM50.76 66.6C50.5067 66.6 50.2733 66.66 50.06 66.78C49.8467 66.9 49.66 67.0667 49.5 67.28C49.34 67.5067 49.22 67.7733 49.14 68.08C49.06 68.3867 49.02 68.7333 49.02 69.12C49.02 69.52 49.0667 69.86 49.16 70.14C49.2533 70.4333 49.3867 70.6733 49.56 70.86C49.7333 71.0467 49.9267 71.1867 50.14 71.28C50.3533 71.3733 50.5667 71.42 50.78 71.42C50.98 71.42 51.1733 71.3867 51.36 71.32C51.5333 71.2533 51.7067 71.16 51.88 71.04C52.04 70.92 52.1933 70.7733 52.34 70.6C52.4733 70.44 52.5933 70.26 52.7 70.06C52.7267 69.5533 52.7 69.0867 52.62 68.66C52.54 68.2467 52.4133 67.88 52.24 67.56C52.0667 67.2533 51.8533 67.0133 51.6 66.84C51.3467 66.68 51.0667 66.6 50.76 66.6Z" fill="#191927"/>
</svg>
