<svg width="62" height="86" viewBox="0 0 62 86" fill="none" xmlns="http://www.w3.org/2000/svg">
<rect width="62" height="86" rx="4" fill="#FAFAFB"/>
<path d="M8.48 21C8.88 19.7867 9.28 18.6 9.68 17.44C10.0933 16.28 10.52 15.12 10.96 13.96C11.4 12.8 11.8533 11.64 12.32 10.48H7.3V8.54H14.86V9.78C14.4867 10.6867 14.1133 11.6 13.74 12.52C13.38 13.4267 13.0333 14.3467 12.7 15.28C12.3667 16.2 12.04 17.14 11.72 18.1C11.4133 19.0467 11.1133 20.0133 10.82 21H8.48Z" fill="#191927"/>
<path d="M31.0001 24.9504L47.0442 43L31.0001 61.0496L14.9561 43L31.0001 24.9504Z" fill="#D93B55"/>
<path d="M53.52 65C53.12 66.2133 52.72 67.4 52.32 68.56C51.9067 69.72 51.48 70.88 51.04 72.04C50.6 73.2 50.1467 74.36 49.68 75.52H54.7V77.46H47.14V76.22C47.5133 75.3133 47.8867 74.4 48.26 73.48C48.62 72.5733 48.9667 71.6533 49.3 70.72C49.6333 69.8 49.96 68.86 50.28 67.9C50.5867 66.9533 50.8867 65.9867 51.18 65H53.52Z" fill="#191927"/>
</svg>
