<svg width="62" height="86" viewBox="0 0 62 86" fill="none" xmlns="http://www.w3.org/2000/svg">
<rect width="62" height="86" rx="4" fill="#FAFAFB"/>
<path d="M11 21.22C10.16 21.22 9.42667 21.0733 8.8 20.78C8.18667 20.4733 7.70667 20.06 7.36 19.54C7.02667 19.02 6.86 18.44 6.86 17.8C6.86 17.2667 6.96 16.7867 7.16 16.36C7.36 15.9333 7.63333 15.5533 7.98 15.22C8.34 14.8733 8.74667 14.5867 9.2 14.36C8.86667 14.1467 8.56667 13.8933 8.3 13.6C8.03333 13.3067 7.82667 12.9867 7.68 12.64C7.53333 12.28 7.46 11.9133 7.46 11.54C7.46 10.94 7.60667 10.4 7.9 9.92C8.19333 9.44 8.61333 9.06 9.16 8.78C9.70667 8.48667 10.36 8.34 11.12 8.34C11.8933 8.34 12.5467 8.48 13.08 8.76C13.6267 9.02667 14.04 9.39333 14.32 9.86C14.6 10.3267 14.74 10.8467 14.74 11.42C14.74 11.7533 14.7 12.0667 14.62 12.36C14.54 12.6533 14.4267 12.9267 14.28 13.18C14.1333 13.42 13.9533 13.6467 13.74 13.86C13.54 14.0733 13.3067 14.26 13.04 14.42C13.3733 14.5933 13.6733 14.8 13.94 15.04C14.2067 15.28 14.4267 15.54 14.6 15.82C14.7867 16.1 14.9267 16.4 15.02 16.72C15.1133 17.04 15.16 17.38 15.16 17.74C15.16 18.4067 14.9867 19.0067 14.64 19.54C14.2933 20.06 13.8067 20.4733 13.18 20.78C12.5667 21.0733 11.84 21.22 11 21.22ZM11.04 19.36C11.4533 19.36 11.8 19.2867 12.08 19.14C12.36 18.98 12.5733 18.7667 12.72 18.5C12.8667 18.2333 12.94 17.9333 12.94 17.6C12.94 17.3333 12.8867 17.08 12.78 16.84C12.6733 16.6 12.5133 16.38 12.3 16.18C12.1 15.98 11.86 15.8 11.58 15.64C11.3 15.4667 10.9867 15.3267 10.64 15.22C10.4133 15.34 10.2 15.4867 10 15.66C9.81333 15.82 9.65333 16 9.52 16.2C9.38667 16.3867 9.28 16.5933 9.2 16.82C9.13333 17.0333 9.1 17.2733 9.1 17.54C9.1 17.8867 9.17333 18.2 9.32 18.48C9.48 18.7467 9.70667 18.96 10 19.12C10.2933 19.28 10.64 19.36 11.04 19.36ZM11.42 13.74C11.6067 13.6067 11.7733 13.46 11.92 13.3C12.0667 13.1267 12.1867 12.9467 12.28 12.76C12.3867 12.5733 12.4667 12.38 12.52 12.18C12.5733 11.98 12.6 11.78 12.6 11.58C12.6 11.3133 12.5333 11.08 12.4 10.88C12.28 10.6667 12.1067 10.5 11.88 10.38C11.6533 10.2467 11.38 10.18 11.06 10.18C10.74 10.18 10.4733 10.24 10.26 10.36C10.0467 10.48 9.88 10.6467 9.76 10.86C9.64 11.06 9.58 11.2867 9.58 11.54C9.58 11.7933 9.62667 12.0267 9.72 12.24C9.81333 12.44 9.94 12.6267 10.1 12.8C10.2733 12.9733 10.4733 13.14 10.7 13.3C10.9267 13.4467 11.1667 13.5933 11.42 13.74Z" fill="#191927"/>
<path fill-rule="evenodd" clip-rule="evenodd" d="M44.5891 50.0169C41.2289 53.469 35.6787 53.5701 32.1924 50.2428L30.9999 49.1046L29.8073 50.2428C26.321 53.5701 20.7709 53.469 17.4106 50.0169C14.0504 46.5648 14.1525 41.069 17.6388 37.7416L30.9999 24.9897L44.3609 37.7416C47.8472 41.069 47.9493 46.5648 44.5891 50.0169Z" fill="#191927"/>
<rect x="29.4131" y="48.3242" width="3.17151" height="12.686" fill="#191927"/>
<path d="M37.3418 57.8386L37.3418 61.0101L24.6558 61.0101L24.6558 57.8386L37.3418 57.8386Z" fill="#191927"/>
<path d="M51 64.78C51.84 64.78 52.5733 64.9267 53.2 65.22C53.8133 65.5267 54.2933 65.94 54.64 66.46C54.9733 66.98 55.14 67.56 55.14 68.2C55.14 68.7333 55.04 69.2133 54.84 69.64C54.64 70.0667 54.3667 70.4467 54.02 70.78C53.66 71.1267 53.2533 71.4133 52.8 71.64C53.1333 71.8533 53.4333 72.1067 53.7 72.4C53.9667 72.6933 54.1733 73.0133 54.32 73.36C54.4667 73.72 54.54 74.0867 54.54 74.46C54.54 75.06 54.3933 75.6 54.1 76.08C53.8067 76.56 53.3867 76.94 52.84 77.22C52.2933 77.5133 51.64 77.66 50.88 77.66C50.1067 77.66 49.4533 77.52 48.92 77.24C48.3733 76.9733 47.96 76.6067 47.68 76.14C47.4 75.6733 47.26 75.1533 47.26 74.58C47.26 74.2467 47.3 73.9333 47.38 73.64C47.46 73.3467 47.5733 73.0733 47.72 72.82C47.8667 72.58 48.0467 72.3533 48.26 72.14C48.46 71.9267 48.6933 71.74 48.96 71.58C48.6267 71.4067 48.3267 71.2 48.06 70.96C47.7933 70.72 47.5733 70.46 47.4 70.18C47.2133 69.9 47.0733 69.6 46.98 69.28C46.8867 68.96 46.84 68.62 46.84 68.26C46.84 67.5933 47.0133 66.9933 47.36 66.46C47.7067 65.94 48.1933 65.5267 48.82 65.22C49.4333 64.9267 50.16 64.78 51 64.78ZM50.96 66.64C50.5467 66.64 50.2 66.7133 49.92 66.86C49.64 67.02 49.4267 67.2333 49.28 67.5C49.1333 67.7667 49.06 68.0667 49.06 68.4C49.06 68.6667 49.1133 68.92 49.22 69.16C49.3267 69.4 49.4867 69.62 49.7 69.82C49.9 70.02 50.14 70.2 50.42 70.36C50.7 70.5333 51.0133 70.6733 51.36 70.78C51.5867 70.66 51.8 70.5133 52 70.34C52.1867 70.18 52.3467 70 52.48 69.8C52.6133 69.6133 52.72 69.4067 52.8 69.18C52.8667 68.9667 52.9 68.7267 52.9 68.46C52.9 68.1133 52.8267 67.8 52.68 67.52C52.52 67.2533 52.2933 67.04 52 66.88C51.7067 66.72 51.36 66.64 50.96 66.64ZM50.58 72.26C50.3933 72.3933 50.2267 72.54 50.08 72.7C49.9333 72.8733 49.8133 73.0533 49.72 73.24C49.6133 73.4267 49.5333 73.62 49.48 73.82C49.4267 74.02 49.4 74.22 49.4 74.42C49.4 74.6867 49.4667 74.92 49.6 75.12C49.72 75.3333 49.8933 75.5 50.12 75.62C50.3467 75.7533 50.62 75.82 50.94 75.82C51.26 75.82 51.5267 75.76 51.74 75.64C51.9533 75.52 52.12 75.3533 52.24 75.14C52.36 74.94 52.42 74.7133 52.42 74.46C52.42 74.2067 52.3733 73.9733 52.28 73.76C52.1867 73.56 52.06 73.3733 51.9 73.2C51.7267 73.0267 51.5267 72.86 51.3 72.7C51.0733 72.5533 50.8333 72.4067 50.58 72.26Z" fill="#191927"/>
</svg>
