<svg width="62" height="86" viewBox="0 0 62 86" fill="none" xmlns="http://www.w3.org/2000/svg">
<rect width="62" height="86" rx="4" fill="#FAFAFB"/>
<path d="M10.48 21.22C9.85333 21.22 9.24667 21.14 8.66 20.98C8.07333 20.8067 7.54 20.5133 7.06 20.1L8.22 18.44L8.32 18.28L8.48 18.38C8.50667 18.4867 8.54667 18.5867 8.6 18.68C8.66667 18.76 8.78 18.8733 8.94 19.02C9.16667 19.14 9.39333 19.2333 9.62 19.3C9.86 19.3533 10.12 19.38 10.4 19.38C10.7867 19.38 11.1267 19.2733 11.42 19.06C11.7267 18.8467 11.9867 18.5333 12.2 18.12C12.4133 17.7067 12.58 17.2267 12.7 16.68C12.82 16.1333 12.88 15.5267 12.88 14.86C12.9067 13.7133 12.8467 12.8 12.7 12.12C12.5533 11.4267 12.3333 10.9267 12.04 10.62C11.76 10.3133 11.3867 10.16 10.92 10.16C10.64 10.16 10.38 10.22 10.14 10.34C9.91333 10.4467 9.71333 10.6133 9.54 10.84C9.38 11.0533 9.25333 11.3133 9.16 11.62C9.08 11.9267 9.04 12.2733 9.04 12.66C9.04 13.0067 9.08667 13.3133 9.18 13.58C9.28667 13.8333 9.42667 14.0533 9.6 14.24C9.77333 14.4133 9.97333 14.5467 10.2 14.64C10.4267 14.7333 10.6667 14.78 10.92 14.78C11.2667 14.78 11.58 14.74 11.86 14.66C12.14 14.58 12.3933 14.4467 12.62 14.26C12.86 14.06 13.0733 13.7933 13.26 13.46L13.48 15.4C13.28 15.6267 13.04 15.8333 12.76 16.02C12.48 16.1933 12.1667 16.3267 11.82 16.42C11.4867 16.5133 11.1267 16.56 10.74 16.56C10.2067 16.56 9.70667 16.4733 9.24 16.3C8.77333 16.1133 8.36667 15.8467 8.02 15.5C7.67333 15.14 7.4 14.72 7.2 14.24C7.01333 13.7467 6.92 13.2 6.92 12.6C6.92 11.9867 7.02667 11.4267 7.24 10.92C7.45333 10.4 7.74 9.95333 8.1 9.58C8.47333 9.19333 8.90667 8.89333 9.4 8.68C9.90667 8.46667 10.44 8.36 11 8.36C11.88 8.36 12.6133 8.58667 13.2 9.04C13.7867 9.48 14.2267 10.1333 14.52 11C14.8267 11.8533 14.98 12.9 14.98 14.14C14.98 15.6733 14.8 16.9667 14.44 18.02C14.0933 19.06 13.5867 19.8533 12.92 20.4C12.2533 20.9333 11.44 21.2067 10.48 21.22Z" fill="#191927"/>
<path fill-rule="evenodd" clip-rule="evenodd" d="M44.5891 50.0169C41.2289 53.469 35.6787 53.5701 32.1924 50.2428L30.9999 49.1046L29.8073 50.2428C26.321 53.5701 20.7709 53.469 17.4106 50.0169C14.0504 46.5648 14.1525 41.069 17.6388 37.7416L30.9999 24.9897L44.3609 37.7416C47.8472 41.069 47.9493 46.5648 44.5891 50.0169Z" fill="#191927"/>
<rect x="29.4131" y="48.3242" width="3.17151" height="12.686" fill="#191927"/>
<path d="M37.3418 57.8386L37.3418 61.0101L24.6558 61.0101L24.6558 57.8386L37.3418 57.8386Z" fill="#191927"/>
<path d="M51.52 64.78C52.1467 64.78 52.7533 64.86 53.34 65.02C53.9267 65.1933 54.46 65.4867 54.94 65.9L53.78 67.56L53.68 67.72L53.52 67.62C53.4933 67.5133 53.4533 67.4133 53.4 67.32C53.3333 67.24 53.22 67.1267 53.06 66.98C52.8333 66.86 52.6067 66.7667 52.38 66.7C52.14 66.6467 51.88 66.62 51.6 66.62C51.2133 66.62 50.8733 66.7267 50.58 66.94C50.2733 67.1533 50.0133 67.4667 49.8 67.88C49.5867 68.2933 49.42 68.7733 49.3 69.32C49.18 69.8667 49.12 70.4733 49.12 71.14C49.0933 72.2867 49.1533 73.2 49.3 73.88C49.4467 74.5733 49.6667 75.0733 49.96 75.38C50.24 75.6867 50.6133 75.84 51.08 75.84C51.36 75.84 51.62 75.78 51.86 75.66C52.0867 75.5533 52.2867 75.3867 52.46 75.16C52.62 74.9467 52.7467 74.6867 52.84 74.38C52.92 74.0733 52.96 73.7267 52.96 73.34C52.96 72.9933 52.9133 72.6867 52.82 72.42C52.7133 72.1667 52.5733 71.9467 52.4 71.76C52.2267 71.5867 52.0267 71.4533 51.8 71.36C51.5733 71.2667 51.3333 71.22 51.08 71.22C50.7333 71.22 50.42 71.26 50.14 71.34C49.86 71.42 49.6067 71.5533 49.38 71.74C49.14 71.94 48.9267 72.2067 48.74 72.54L48.52 70.6C48.72 70.3733 48.96 70.1667 49.24 69.98C49.52 69.8067 49.8333 69.6733 50.18 69.58C50.5133 69.4867 50.8733 69.44 51.26 69.44C51.7933 69.44 52.2933 69.5267 52.76 69.7C53.2267 69.8867 53.6333 70.1533 53.98 70.5C54.3267 70.86 54.6 71.28 54.8 71.76C54.9867 72.2533 55.08 72.8 55.08 73.4C55.08 74.0133 54.9733 74.5733 54.76 75.08C54.5467 75.6 54.26 76.0467 53.9 76.42C53.5267 76.8067 53.0933 77.1067 52.6 77.32C52.0933 77.5333 51.56 77.64 51 77.64C50.12 77.64 49.3867 77.4133 48.8 76.96C48.2133 76.52 47.7733 75.8667 47.48 75C47.1733 74.1467 47.02 73.1 47.02 71.86C47.02 70.3267 47.2 69.0333 47.56 67.98C47.9067 66.94 48.4133 66.1467 49.08 65.6C49.7467 65.0667 50.56 64.7933 51.52 64.78Z" fill="#191927"/>
</svg>
