<svg width="62" height="86" viewBox="0 0 62 86" fill="none" xmlns="http://www.w3.org/2000/svg">
<rect width="62" height="86" rx="4" fill="#FAFAFB"/>
<path d="M13.34 18.1H8.46L8.78 16.48H12.96L13.34 18.1ZM11 12.64L8.48 21H6.24L10.46 8.46H11.54L15.76 21H13.48L11 12.64Z" fill="#191927"/>
<path fill-rule="evenodd" clip-rule="evenodd" d="M17.6665 31.8692C20.9636 28.4338 26.4095 28.3332 29.8302 31.6443L31.0003 32.777L32.1705 31.6443C35.5912 28.3332 41.037 28.4338 44.3341 31.8692C47.6312 35.3045 47.531 40.7736 44.1103 44.0847L31.0003 56.7747L17.8904 44.0847C14.4697 40.7736 14.3694 35.3045 17.6665 31.8692Z" fill="#D93B55"/>
<path d="M48.66 67.9H53.54L53.22 69.52H49.04L48.66 67.9ZM51 73.36L53.52 65H55.76L51.54 77.54H50.46L46.24 65H48.52L51 73.36Z" fill="#191927"/>
</svg>
