<svg width="62" height="86" viewBox="0 0 62 86" fill="none" xmlns="http://www.w3.org/2000/svg">
<rect width="62" height="86" rx="4" fill="#FAFAFB"/>
<g clip-path="url(#clip0_102_55559)">
<path d="M5.5 4L8 7L5.5 10L3 7L5.5 4Z" fill="#37488C"/>
<path d="M5.5 12L8 15L5.5 18L3 15L5.5 12Z" fill="#37488C"/>
<path d="M5.5 20L8 23L5.5 26L3 23L5.5 20Z" fill="#37488C"/>
<path d="M5.5 28L8 31L5.5 34L3 31L5.5 28Z" fill="#37488C"/>
<path d="M5.5 36L8 39L5.5 42L3 39L5.5 36Z" fill="#37488C"/>
<path d="M5.5 44L8 47L5.5 50L3 47L5.5 44Z" fill="#37488C"/>
<path d="M5.5 52L8 55L5.5 58L3 55L5.5 52Z" fill="#37488C"/>
<path d="M5.5 60L8 63L5.5 66L3 63L5.5 60Z" fill="#37488C"/>
<path d="M5.5 68L8 71L5.5 74L3 71L5.5 68Z" fill="#37488C"/>
<path d="M5.5 76L8 79L5.5 82L3 79L5.5 76Z" fill="#37488C"/>
<path d="M11.5 4L14 7L11.5 10L9 7L11.5 4Z" fill="#37488C"/>
<path d="M11.5 12L14 15L11.5 18L9 15L11.5 12Z" fill="#37488C"/>
<path d="M11.5 20L14 23L11.5 26L9 23L11.5 20Z" fill="#37488C"/>
<path d="M11.5 28L14 31L11.5 34L9 31L11.5 28Z" fill="#37488C"/>
<path d="M11.5 36L14 39L11.5 42L9 39L11.5 36Z" fill="#37488C"/>
<path d="M11.5 44L14 47L11.5 50L9 47L11.5 44Z" fill="#37488C"/>
<path d="M11.5 52L14 55L11.5 58L9 55L11.5 52Z" fill="#37488C"/>
<path d="M11.5 60L14 63L11.5 66L9 63L11.5 60Z" fill="#37488C"/>
<path d="M11.5 68L14 71L11.5 74L9 71L11.5 68Z" fill="#37488C"/>
<path d="M11.5 76L14 79L11.5 82L9 79L11.5 76Z" fill="#37488C"/>
<path d="M17.5 4L20 7L17.5 10L15 7L17.5 4Z" fill="#37488C"/>
<path d="M17.5 12L20 15L17.5 18L15 15L17.5 12Z" fill="#37488C"/>
<path d="M17.5 20L20 23L17.5 26L15 23L17.5 20Z" fill="#37488C"/>
<path d="M17.5 28L20 31L17.5 34L15 31L17.5 28Z" fill="#37488C"/>
<path d="M17.5 36L20 39L17.5 42L15 39L17.5 36Z" fill="#37488C"/>
<path d="M17.5 44L20 47L17.5 50L15 47L17.5 44Z" fill="#37488C"/>
<path d="M17.5 52L20 55L17.5 58L15 55L17.5 52Z" fill="#37488C"/>
<path d="M17.5 60L20 63L17.5 66L15 63L17.5 60Z" fill="#37488C"/>
<path d="M17.5 68L20 71L17.5 74L15 71L17.5 68Z" fill="#37488C"/>
<path d="M17.5 76L20 79L17.5 82L15 79L17.5 76Z" fill="#37488C"/>
<path d="M23.5 4L26 7L23.5 10L21 7L23.5 4Z" fill="#37488C"/>
<path d="M23.5 12L26 15L23.5 18L21 15L23.5 12Z" fill="#37488C"/>
<path d="M23.5 20L26 23L23.5 26L21 23L23.5 20Z" fill="#37488C"/>
<path d="M23.5 28L26 31L23.5 34L21 31L23.5 28Z" fill="#37488C"/>
<path d="M23.5 36L26 39L23.5 42L21 39L23.5 36Z" fill="#37488C"/>
<path d="M23.5 44L26 47L23.5 50L21 47L23.5 44Z" fill="#37488C"/>
<path d="M23.5 52L26 55L23.5 58L21 55L23.5 52Z" fill="#37488C"/>
<path d="M23.5 60L26 63L23.5 66L21 63L23.5 60Z" fill="#37488C"/>
<path d="M23.5 68L26 71L23.5 74L21 71L23.5 68Z" fill="#37488C"/>
<path d="M23.5 76L26 79L23.5 82L21 79L23.5 76Z" fill="#37488C"/>
<path d="M29.5 4L32 7L29.5 10L27 7L29.5 4Z" fill="#37488C"/>
<path d="M29.5 12L32 15L29.5 18L27 15L29.5 12Z" fill="#37488C"/>
<path d="M29.5 20L32 23L29.5 26L27 23L29.5 20Z" fill="#37488C"/>
<path d="M29.5 28L32 31L29.5 34L27 31L29.5 28Z" fill="#37488C"/>
<path d="M29.5 36L32 39L29.5 42L27 39L29.5 36Z" fill="#37488C"/>
<path d="M29.5 44L32 47L29.5 50L27 47L29.5 44Z" fill="#37488C"/>
<path d="M29.5 52L32 55L29.5 58L27 55L29.5 52Z" fill="#37488C"/>
<path d="M29.5 60L32 63L29.5 66L27 63L29.5 60Z" fill="#37488C"/>
<path d="M29.5 68L32 71L29.5 74L27 71L29.5 68Z" fill="#37488C"/>
<path d="M29.5 76L32 79L29.5 82L27 79L29.5 76Z" fill="#37488C"/>
<path d="M35.5 4L38 7L35.5 10L33 7L35.5 4Z" fill="#37488C"/>
<path d="M35.5 12L38 15L35.5 18L33 15L35.5 12Z" fill="#37488C"/>
<path d="M35.5 20L38 23L35.5 26L33 23L35.5 20Z" fill="#37488C"/>
<path d="M35.5 28L38 31L35.5 34L33 31L35.5 28Z" fill="#37488C"/>
<path d="M35.5 36L38 39L35.5 42L33 39L35.5 36Z" fill="#37488C"/>
<path d="M35.5 44L38 47L35.5 50L33 47L35.5 44Z" fill="#37488C"/>
<path d="M35.5 52L38 55L35.5 58L33 55L35.5 52Z" fill="#37488C"/>
<path d="M35.5 60L38 63L35.5 66L33 63L35.5 60Z" fill="#37488C"/>
<path d="M35.5 68L38 71L35.5 74L33 71L35.5 68Z" fill="#37488C"/>
<path d="M35.5 76L38 79L35.5 82L33 79L35.5 76Z" fill="#37488C"/>
<path d="M41.5 4L44 7L41.5 10L39 7L41.5 4Z" fill="#37488C"/>
<path d="M41.5 12L44 15L41.5 18L39 15L41.5 12Z" fill="#37488C"/>
<path d="M41.5 20L44 23L41.5 26L39 23L41.5 20Z" fill="#37488C"/>
<path d="M41.5 28L44 31L41.5 34L39 31L41.5 28Z" fill="#37488C"/>
<path d="M41.5 36L44 39L41.5 42L39 39L41.5 36Z" fill="#37488C"/>
<path d="M41.5 44L44 47L41.5 50L39 47L41.5 44Z" fill="#37488C"/>
<path d="M41.5 52L44 55L41.5 58L39 55L41.5 52Z" fill="#37488C"/>
<path d="M41.5 60L44 63L41.5 66L39 63L41.5 60Z" fill="#37488C"/>
<path d="M41.5 68L44 71L41.5 74L39 71L41.5 68Z" fill="#37488C"/>
<path d="M41.5 76L44 79L41.5 82L39 79L41.5 76Z" fill="#37488C"/>
<path d="M47.5 4L50 7L47.5 10L45 7L47.5 4Z" fill="#37488C"/>
<path d="M47.5 12L50 15L47.5 18L45 15L47.5 12Z" fill="#37488C"/>
<path d="M47.5 20L50 23L47.5 26L45 23L47.5 20Z" fill="#37488C"/>
<path d="M47.5 28L50 31L47.5 34L45 31L47.5 28Z" fill="#37488C"/>
<path d="M47.5 36L50 39L47.5 42L45 39L47.5 36Z" fill="#37488C"/>
<path d="M47.5 44L50 47L47.5 50L45 47L47.5 44Z" fill="#37488C"/>
<path d="M47.5 52L50 55L47.5 58L45 55L47.5 52Z" fill="#37488C"/>
<path d="M47.5 60L50 63L47.5 66L45 63L47.5 60Z" fill="#37488C"/>
<path d="M47.5 68L50 71L47.5 74L45 71L47.5 68Z" fill="#37488C"/>
<path d="M47.5 76L50 79L47.5 82L45 79L47.5 76Z" fill="#37488C"/>
<path d="M53.5 4L56 7L53.5 10L51 7L53.5 4Z" fill="#37488C"/>
<path d="M53.5 12L56 15L53.5 18L51 15L53.5 12Z" fill="#37488C"/>
<path d="M53.5 20L56 23L53.5 26L51 23L53.5 20Z" fill="#37488C"/>
<path d="M53.5 28L56 31L53.5 34L51 31L53.5 28Z" fill="#37488C"/>
<path d="M53.5 36L56 39L53.5 42L51 39L53.5 36Z" fill="#37488C"/>
<path d="M53.5 44L56 47L53.5 50L51 47L53.5 44Z" fill="#37488C"/>
<path d="M53.5 52L56 55L53.5 58L51 55L53.5 52Z" fill="#37488C"/>
<path d="M53.5 60L56 63L53.5 66L51 63L53.5 60Z" fill="#37488C"/>
<path d="M53.5 68L56 71L53.5 74L51 71L53.5 68Z" fill="#37488C"/>
<path d="M53.5 76L56 79L53.5 82L51 79L53.5 76Z" fill="#37488C"/>
<path d="M59.5 4L62 7L59.5 10L57 7L59.5 4Z" fill="#37488C"/>
<path d="M59.5 12L62 15L59.5 18L57 15L59.5 12Z" fill="#37488C"/>
<path d="M59.5 20L62 23L59.5 26L57 23L59.5 20Z" fill="#37488C"/>
<path d="M59.5 28L62 31L59.5 34L57 31L59.5 28Z" fill="#37488C"/>
<path d="M59.5 36L62 39L59.5 42L57 39L59.5 36Z" fill="#37488C"/>
<path d="M59.5 44L62 47L59.5 50L57 47L59.5 44Z" fill="#37488C"/>
<path d="M59.5 52L62 55L59.5 58L57 55L59.5 52Z" fill="#37488C"/>
<path d="M59.5 60L62 63L59.5 66L57 63L59.5 60Z" fill="#37488C"/>
<path d="M59.5 68L62 71L59.5 74L57 71L59.5 68Z" fill="#37488C"/>
<path d="M59.5 76L62 79L59.5 82L57 79L59.5 76Z" fill="#37488C"/>
<path d="M8.5 0L11 3L8.5 6L6 3L8.5 0Z" fill="#37488C"/>
<path d="M8.5 8L11 11L8.5 14L6 11L8.5 8Z" fill="#37488C"/>
<path d="M8.5 16L11 19L8.5 22L6 19L8.5 16Z" fill="#37488C"/>
<path d="M8.5 24L11 27L8.5 30L6 27L8.5 24Z" fill="#37488C"/>
<path d="M8.5 32L11 35L8.5 38L6 35L8.5 32Z" fill="#37488C"/>
<path d="M8.5 40L11 43L8.5 46L6 43L8.5 40Z" fill="#37488C"/>
<path d="M8.5 48L11 51L8.5 54L6 51L8.5 48Z" fill="#37488C"/>
<path d="M8.5 56L11 59L8.5 62L6 59L8.5 56Z" fill="#37488C"/>
<path d="M8.5 64L11 67L8.5 70L6 67L8.5 64Z" fill="#37488C"/>
<path d="M8.5 72L11 75L8.5 78L6 75L8.5 72Z" fill="#37488C"/>
<path d="M8.5 80L11 83L8.5 86L6 83L8.5 80Z" fill="#37488C"/>
<path d="M20.5 0L23 3L20.5 6L18 3L20.5 0Z" fill="#37488C"/>
<path d="M20.5 8L23 11L20.5 14L18 11L20.5 8Z" fill="#37488C"/>
<path d="M20.5 16L23 19L20.5 22L18 19L20.5 16Z" fill="#37488C"/>
<path d="M20.5 24L23 27L20.5 30L18 27L20.5 24Z" fill="#37488C"/>
<path d="M20.5 32L23 35L20.5 38L18 35L20.5 32Z" fill="#37488C"/>
<path d="M20.5 40L23 43L20.5 46L18 43L20.5 40Z" fill="#37488C"/>
<path d="M20.5 48L23 51L20.5 54L18 51L20.5 48Z" fill="#37488C"/>
<path d="M20.5 56L23 59L20.5 62L18 59L20.5 56Z" fill="#37488C"/>
<path d="M20.5 64L23 67L20.5 70L18 67L20.5 64Z" fill="#37488C"/>
<path d="M20.5 72L23 75L20.5 78L18 75L20.5 72Z" fill="#37488C"/>
<path d="M20.5 80L23 83L20.5 86L18 83L20.5 80Z" fill="#37488C"/>
<path d="M32.5 0L35 3L32.5 6L30 3L32.5 0Z" fill="#37488C"/>
<path d="M32.5 8L35 11L32.5 14L30 11L32.5 8Z" fill="#37488C"/>
<path d="M32.5 16L35 19L32.5 22L30 19L32.5 16Z" fill="#37488C"/>
<path d="M32.5 24L35 27L32.5 30L30 27L32.5 24Z" fill="#37488C"/>
<path d="M32.5 32L35 35L32.5 38L30 35L32.5 32Z" fill="#37488C"/>
<path d="M32.5 40L35 43L32.5 46L30 43L32.5 40Z" fill="#37488C"/>
<path d="M32.5 48L35 51L32.5 54L30 51L32.5 48Z" fill="#37488C"/>
<path d="M32.5 56L35 59L32.5 62L30 59L32.5 56Z" fill="#37488C"/>
<path d="M32.5 64L35 67L32.5 70L30 67L32.5 64Z" fill="#37488C"/>
<path d="M32.5 72L35 75L32.5 78L30 75L32.5 72Z" fill="#37488C"/>
<path d="M32.5 80L35 83L32.5 86L30 83L32.5 80Z" fill="#37488C"/>
<path d="M44.5 0L47 3L44.5 6L42 3L44.5 0Z" fill="#37488C"/>
<path d="M44.5 8L47 11L44.5 14L42 11L44.5 8Z" fill="#37488C"/>
<path d="M44.5 16L47 19L44.5 22L42 19L44.5 16Z" fill="#37488C"/>
<path d="M44.5 24L47 27L44.5 30L42 27L44.5 24Z" fill="#37488C"/>
<path d="M44.5 32L47 35L44.5 38L42 35L44.5 32Z" fill="#37488C"/>
<path d="M44.5 40L47 43L44.5 46L42 43L44.5 40Z" fill="#37488C"/>
<path d="M44.5 48L47 51L44.5 54L42 51L44.5 48Z" fill="#37488C"/>
<path d="M44.5 56L47 59L44.5 62L42 59L44.5 56Z" fill="#37488C"/>
<path d="M44.5 64L47 67L44.5 70L42 67L44.5 64Z" fill="#37488C"/>
<path d="M44.5 72L47 75L44.5 78L42 75L44.5 72Z" fill="#37488C"/>
<path d="M44.5 80L47 83L44.5 86L42 83L44.5 80Z" fill="#37488C"/>
<path d="M56.5 0L59 3L56.5 6L54 3L56.5 0Z" fill="#37488C"/>
<path d="M56.5 8L59 11L56.5 14L54 11L56.5 8Z" fill="#37488C"/>
<path d="M56.5 16L59 19L56.5 22L54 19L56.5 16Z" fill="#37488C"/>
<path d="M56.5 24L59 27L56.5 30L54 27L56.5 24Z" fill="#37488C"/>
<path d="M56.5 32L59 35L56.5 38L54 35L56.5 32Z" fill="#37488C"/>
<path d="M56.5 40L59 43L56.5 46L54 43L56.5 40Z" fill="#37488C"/>
<path d="M56.5 48L59 51L56.5 54L54 51L56.5 48Z" fill="#37488C"/>
<path d="M56.5 56L59 59L56.5 62L54 59L56.5 56Z" fill="#37488C"/>
<path d="M56.5 64L59 67L56.5 70L54 67L56.5 64Z" fill="#37488C"/>
<path d="M56.5 72L59 75L56.5 78L54 75L56.5 72Z" fill="#37488C"/>
<path d="M56.5 80L59 83L56.5 86L54 83L56.5 80Z" fill="#37488C"/>
<path d="M14.5 0L17 3L14.5 6L12 3L14.5 0Z" fill="#37488C"/>
<path d="M14.5 8L17 11L14.5 14L12 11L14.5 8Z" fill="#37488C"/>
<path d="M14.5 16L17 19L14.5 22L12 19L14.5 16Z" fill="#37488C"/>
<path d="M14.5 24L17 27L14.5 30L12 27L14.5 24Z" fill="#37488C"/>
<path d="M14.5 32L17 35L14.5 38L12 35L14.5 32Z" fill="#37488C"/>
<path d="M14.5 40L17 43L14.5 46L12 43L14.5 40Z" fill="#37488C"/>
<path d="M14.5 48L17 51L14.5 54L12 51L14.5 48Z" fill="#37488C"/>
<path d="M14.5 56L17 59L14.5 62L12 59L14.5 56Z" fill="#37488C"/>
<path d="M14.5 64L17 67L14.5 70L12 67L14.5 64Z" fill="#37488C"/>
<path d="M14.5 72L17 75L14.5 78L12 75L14.5 72Z" fill="#37488C"/>
<path d="M14.5 80L17 83L14.5 86L12 83L14.5 80Z" fill="#37488C"/>
<path d="M26.5 0L29 3L26.5 6L24 3L26.5 0Z" fill="#37488C"/>
<path d="M26.5 8L29 11L26.5 14L24 11L26.5 8Z" fill="#37488C"/>
<path d="M26.5 16L29 19L26.5 22L24 19L26.5 16Z" fill="#37488C"/>
<path d="M26.5 24L29 27L26.5 30L24 27L26.5 24Z" fill="#37488C"/>
<path d="M26.5 32L29 35L26.5 38L24 35L26.5 32Z" fill="#37488C"/>
<path d="M26.5 40L29 43L26.5 46L24 43L26.5 40Z" fill="#37488C"/>
<path d="M26.5 48L29 51L26.5 54L24 51L26.5 48Z" fill="#37488C"/>
<path d="M26.5 56L29 59L26.5 62L24 59L26.5 56Z" fill="#37488C"/>
<path d="M26.5 64L29 67L26.5 70L24 67L26.5 64Z" fill="#37488C"/>
<path d="M26.5 72L29 75L26.5 78L24 75L26.5 72Z" fill="#37488C"/>
<path d="M26.5 80L29 83L26.5 86L24 83L26.5 80Z" fill="#37488C"/>
<path d="M38.5 0L41 3L38.5 6L36 3L38.5 0Z" fill="#37488C"/>
<path d="M38.5 8L41 11L38.5 14L36 11L38.5 8Z" fill="#37488C"/>
<path d="M38.5 16L41 19L38.5 22L36 19L38.5 16Z" fill="#37488C"/>
<path d="M38.5 24L41 27L38.5 30L36 27L38.5 24Z" fill="#37488C"/>
<path d="M38.5 32L41 35L38.5 38L36 35L38.5 32Z" fill="#37488C"/>
<path d="M38.5 40L41 43L38.5 46L36 43L38.5 40Z" fill="#37488C"/>
<path d="M38.5 48L41 51L38.5 54L36 51L38.5 48Z" fill="#37488C"/>
<path d="M38.5 56L41 59L38.5 62L36 59L38.5 56Z" fill="#37488C"/>
<path d="M38.5 64L41 67L38.5 70L36 67L38.5 64Z" fill="#37488C"/>
<path d="M38.5 72L41 75L38.5 78L36 75L38.5 72Z" fill="#37488C"/>
<path d="M38.5 80L41 83L38.5 86L36 83L38.5 80Z" fill="#37488C"/>
<path d="M50.5 0L53 3L50.5 6L48 3L50.5 0Z" fill="#37488C"/>
<path d="M50.5 8L53 11L50.5 14L48 11L50.5 8Z" fill="#37488C"/>
<path d="M50.5 16L53 19L50.5 22L48 19L50.5 16Z" fill="#37488C"/>
<path d="M50.5 24L53 27L50.5 30L48 27L50.5 24Z" fill="#37488C"/>
<path d="M50.5 32L53 35L50.5 38L48 35L50.5 32Z" fill="#37488C"/>
<path d="M50.5 40L53 43L50.5 46L48 43L50.5 40Z" fill="#37488C"/>
<path d="M50.5 48L53 51L50.5 54L48 51L50.5 48Z" fill="#37488C"/>
<path d="M50.5 56L53 59L50.5 62L48 59L50.5 56Z" fill="#37488C"/>
<path d="M50.5 64L53 67L50.5 70L48 67L50.5 64Z" fill="#37488C"/>
<path d="M50.5 72L53 75L50.5 78L48 75L50.5 72Z" fill="#37488C"/>
<path d="M50.5 80L53 83L50.5 86L48 83L50.5 80Z" fill="#37488C"/>
<path d="M2.5 0L5 3L2.5 6L0 3L2.5 0Z" fill="#37488C"/>
<path d="M2.5 8L5 11L2.5 14L0 11L2.5 8Z" fill="#37488C"/>
<path d="M2.5 16L5 19L2.5 22L0 19L2.5 16Z" fill="#37488C"/>
<path d="M2.5 24L5 27L2.5 30L0 27L2.5 24Z" fill="#37488C"/>
<path d="M2.5 32L5 35L2.5 38L0 35L2.5 32Z" fill="#37488C"/>
<path d="M2.5 40L5 43L2.5 46L0 43L2.5 40Z" fill="#37488C"/>
<path d="M2.5 48L5 51L2.5 54L0 51L2.5 48Z" fill="#37488C"/>
<path d="M2.5 56L5 59L2.5 62L0 59L2.5 56Z" fill="#37488C"/>
<path d="M2.5 64L5 67L2.5 70L0 67L2.5 64Z" fill="#37488C"/>
<path d="M2.5 72L5 75L2.5 78L0 75L2.5 72Z" fill="#37488C"/>
<path d="M2.5 80L5 83L2.5 86L0 83L2.5 80Z" fill="#37488C"/>
</g>
<defs>
<clipPath id="clip0_102_55559">
<rect width="54" height="78" fill="white" transform="translate(4 4)"/>
</clipPath>
</defs>
</svg>
